<?xml version="1.0" standalone="no"?>
<!DOCTYPE svg PUBLIC "-//W3C//DTD SVG 20010904//EN"
 "http://www.w3.org/TR/2001/REC-SVG-20010904/DTD/svg10.dtd">
<svg version="1.0" xmlns="http://www.w3.org/2000/svg"
 width="300.000000pt" height="300.000000pt" viewBox="0 0 300.000000 300.000000"
 preserveAspectRatio="xMidYMid meet">

<g transform="translate(0.000000,300.000000) scale(0.100000,-0.100000)"
fill="#000000" stroke="none">
<path d="M0 1500 l0 -1500 759 0 c598 0 760 3 764 13 4 9 6 9 6 0 1 -7 6 -13
11 -13 6 0 10 6 8 13 -2 7 7 25 20 41 12 16 22 24 22 17 0 -6 4 -11 8 -11 4 0
8 9 8 19 0 11 -4 17 -8 15 -4 -3 -8 -1 -8 4 0 6 11 13 25 16 17 4 25 12 23 24
-2 9 3 16 9 15 20 -4 52 28 45 45 -3 9 -1 13 4 9 6 -3 16 -2 24 4 11 6 12 9 2
9 -22 0 -2 20 21 21 21 0 21 1 2 9 -11 5 -15 9 -10 10 32 5 48 9 53 16 4 4 -1
5 -10 1 -10 -3 -19 0 -22 9 -3 8 -2 13 3 10 5 -3 21 6 37 19 18 15 23 25 15
25 -11 0 -12 3 -4 11 6 6 9 18 6 27 -4 10 -2 13 6 8 11 -7 61 35 60 51 0 4 8
10 18 14 10 4 12 8 5 8 -8 1 -10 6 -5 14 4 6 8 17 9 22 0 6 2 16 2 23 1 6 8
11 15 10 7 -2 12 7 12 20 0 13 8 28 17 33 8 5 19 25 22 44 5 25 14 39 32 45
13 5 24 12 24 15 0 4 -4 3 -10 0 -25 -16 -6 18 33 55 35 35 37 39 12 24 l-30
-18 30 33 c24 25 26 31 10 25 -19 -7 -19 -6 -3 12 9 10 17 24 17 29 1 6 5 10
10 10 5 0 13 3 17 8 4 4 2 7 -6 7 -10 0 -10 4 1 17 8 9 9 14 3 10 -6 -3 -11 0
-11 7 0 8 8 11 18 9 9 -3 20 1 24 8 5 8 4 10 -3 5 -16 -9 -15 7 0 22 9 9 9 12
-2 12 -10 0 -9 4 3 18 10 10 14 22 10 27 -5 4 -3 5 4 1 6 -3 14 -2 18 4 4 7
-158 10 -495 10 -299 0 -500 4 -498 9 6 16 778 791 788 791 6 0 10 -85 10
-233 l0 -232 111 -110 c104 -104 111 -109 125 -91 16 23 19 40 4 31 -18 -11
-11 4 12 25 20 19 21 20 3 20 -18 0 -18 1 2 15 14 10 20 21 16 32 -5 12 -2 15
10 10 14 -5 15 -3 4 15 -9 16 -9 22 1 25 6 3 12 16 12 29 0 14 7 38 15 53 8
16 11 31 8 35 -4 3 -2 6 4 6 6 0 10 15 8 35 -3 27 0 35 13 36 11 0 13 2 4 6
-10 4 -9 10 4 30 11 18 12 23 3 18 -8 -5 -6 1 4 12 13 15 15 22 6 25 -8 3 -7
9 4 20 11 10 15 28 13 54 -3 20 1 49 7 63 5 14 9 32 8 40 -1 7 2 10 7 7 10 -6
8 36 -2 53 -4 5 -1 13 4 16 6 4 11 19 10 33 -4 52 0 72 13 72 7 0 13 9 14 20
1 13 -2 18 -10 13 -7 -4 -7 -1 1 10 8 9 11 21 7 27 -3 5 1 10 9 10 9 0 16 5
16 11 0 5 -4 7 -10 4 -5 -3 -10 -1 -10 4 0 6 7 11 15 11 21 0 19 18 -2 23 -12
3 -10 5 7 6 19 1 22 3 10 10 -8 6 -18 7 -22 5 -4 -3 -8 0 -8 5 0 6 7 11 16 11
14 0 14 3 4 15 -8 10 -9 15 -2 15 6 0 9 7 6 15 -4 9 0 15 10 15 9 0 16 5 16
11 0 5 -4 8 -8 5 -4 -2 -14 -1 -22 5 -12 7 -10 9 8 9 12 0 22 5 22 11 0 5 -4
8 -9 4 -5 -3 -12 -1 -16 5 -3 5 1 10 9 10 9 0 16 5 16 11 0 5 -4 7 -10 4 -5
-3 -10 -1 -10 4 0 6 7 11 16 11 8 0 12 5 9 10 -4 6 -10 8 -15 5 -5 -3 -11 -1
-15 5 -3 5 3 10 15 10 12 0 19 4 15 10 -3 5 -12 7 -19 4 -8 -3 -17 -1 -21 5
-3 7 2 11 14 11 12 0 21 5 21 11 0 5 -4 8 -9 4 -5 -3 -12 -1 -16 5 -3 6 3 10
16 10 18 0 19 2 9 15 -10 12 -10 15 1 15 9 1 8 5 -5 15 -19 15 -19 15 5 15 18
0 21 2 9 9 -8 6 -18 7 -24 4 -5 -3 -6 -1 -2 5 4 7 16 12 27 12 10 0 19 4 19
10 0 5 -7 7 -15 4 -8 -4 -15 -1 -15 5 0 6 7 11 15 11 17 0 19 9 5 30 -5 8 -12
11 -17 7 -4 -5 -1 -12 7 -17 13 -8 12 -10 -2 -10 -15 0 -18 9 -18 50 0 38 4
50 15 50 23 0 18 18 -7 23 l-23 4 23 2 c28 1 29 21 1 21 -12 0 -17 4 -14 11 4
6 8 27 10 47 2 20 5 49 8 64 2 15 0 25 -4 22 -10 -6 -12 10 -2 19 10 11 13 57
2 57 -5 0 -9 4 -9 10 0 5 7 7 15 4 24 -10 17 12 -7 25 l-23 11 22 -6 c18 -4
22 -2 17 10 -3 9 -11 13 -17 9 -6 -4 -8 1 -5 13 3 11 -1 25 -8 32 -10 9 -288
12 -1239 12 l-1225 0 0 -1500z m1816 473 c-4 -5 -180 -182 -392 -395 -211
-214 -388 -388 -394 -388 -6 0 -10 81 -10 233 l0 234 -26 24 c-14 13 -85 86
-156 162 l-130 137 558 0 c306 0 554 -3 550 -7z"/>
<path d="M2480 2740 c0 -5 5 -10 10 -10 6 0 10 5 10 10 0 6 -4 10 -10 10 -5 0
-10 -4 -10 -10z"/>
<path d="M2480 2710 c0 -5 5 -10 10 -10 6 0 10 5 10 10 0 6 -4 10 -10 10 -5 0
-10 -4 -10 -10z"/>
<path d="M2480 2680 c0 -5 5 -10 10 -10 6 0 10 5 10 10 0 6 -4 10 -10 10 -5 0
-10 -4 -10 -10z"/>
<path d="M2480 2590 c0 -5 5 -10 10 -10 6 0 10 5 10 10 0 6 -4 10 -10 10 -5 0
-10 -4 -10 -10z"/>
<path d="M2480 2560 c0 -5 5 -10 10 -10 6 0 10 5 10 10 0 6 -4 10 -10 10 -5 0
-10 -4 -10 -10z"/>
<path d="M1916 498 c3 -5 10 -6 15 -3 13 9 11 12 -6 12 -8 0 -12 -4 -9 -9z"/>
<path d="M1555 30 c-3 -6 1 -7 9 -4 18 7 21 14 7 14 -6 0 -13 -4 -16 -10z"/>
</g>
</svg>
