<?xml version="1.0" encoding="utf-8"?>
<!-- Generator: Adobe Adobe Illustrator 24.2.0, SVG Export Plug-In . SVG Version: 6.00 Build 0)  -->
<svg version="1.1" id="Calque_1" xmlns="http://www.w3.org/2000/svg" xmlns:xlink="http://www.w3.org/1999/xlink" x="0px" y="0px"
	 width="1920px" height="1080px" viewBox="0 0 1920 1080" style="enable-background:new 0 0 1920 1080;" xml:space="preserve">
<style type="text/css">
	.st0{clip-path:url(#SVGID_2_);}
	.st1{fill:#D6CCC2;}
</style>
<g>
	<defs>
		<rect id="SVGID_1_" y="-81.17" width="1920" height="1242.34"/>
	</defs>
	<clipPath id="SVGID_2_">
		<use xlink:href="#SVGID_1_"  style="overflow:visible;"/>
	</clipPath>
	<g class="st0">
		<polygon class="st1" points="420.92,791.18 442.93,778.48 442.93,626.03 354.92,575.22 354.92,499 420.92,537.11 464.93,511.7 
			464.93,486.3 420.92,511.7 354.92,473.59 354.92,422.78 332.91,435.48 332.91,587.92 420.92,638.74 420.92,714.95 354.92,676.85 
			310.91,702.25 310.91,727.66 354.92,702.25 420.92,740.36 		"/>
		<polygon class="st1" points="662.96,626.03 596.95,664.15 596.95,714.96 618.95,727.66 618.95,676.85 684.96,638.74 
			706.96,651.44 728.96,664.15 728.96,638.74 596.95,562.52 508.94,613.33 442.93,575.22 508.94,537.11 508.94,486.3 486.93,473.59 
			486.93,524.41 420.92,562.52 376.92,537.11 376.92,562.52 508.94,638.74 596.95,587.92 		"/>
		<polygon class="st1" points="376.92,765.77 376.92,841.99 332.91,867.39 354.92,880.1 398.92,854.69 486.94,803.88 486.94,702.25 
			552.95,664.15 552.94,740.36 596.95,765.77 618.95,753.07 574.95,727.66 574.95,651.44 618.95,626.03 596.95,613.33 
			464.93,689.55 464.93,791.18 398.92,829.29 398.92,753.07 354.92,727.66 332.91,740.36 		"/>
		<polygon class="st1" points="464.93,638.74 464.93,664.15 486.93,651.44 		"/>
		<polygon class="st1" points="574.95,499 596.95,486.3 596.95,333.86 508.94,283.05 508.94,206.82 574.95,244.93 618.96,219.53 
			618.96,194.12 574.95,219.53 508.94,181.42 508.94,130.6 486.93,143.31 486.93,295.75 574.95,346.56 574.95,422.78 508.94,384.67 
			464.93,410.08 464.93,435.48 508.94,410.08 574.95,448.19 		"/>
		<polygon class="st1" points="574.95,270.34 530.95,244.93 530.95,270.34 662.96,346.56 750.98,295.75 816.99,333.86 
			750.98,371.97 750.98,422.78 772.98,435.48 772.98,384.67 838.99,346.56 860.99,359.26 882.99,371.97 882.99,346.56 
			750.98,270.34 662.96,321.15 596.95,283.05 662.96,244.93 662.96,194.12 640.96,181.42 640.96,232.23 		"/>
		<polygon class="st1" points="530.95,473.59 530.95,549.81 486.93,575.22 508.94,587.92 552.95,562.52 640.96,511.7 640.96,410.08 
			706.97,371.97 706.97,448.19 750.98,473.59 772.98,460.89 728.97,435.48 728.97,359.26 772.98,333.86 750.98,321.15 
			618.96,397.38 618.96,499 552.95,537.11 552.95,460.89 508.94,435.48 486.93,448.19 		"/>
		<polygon class="st1" points="640.96,359.26 618.96,346.56 618.96,371.97 		"/>
		<polygon class="st1" points="662.96,-110.77 662.96,-161.58 640.95,-148.88 640.95,3.56 728.97,54.38 728.97,130.6 662.96,92.49 
			618.95,117.89 618.95,143.3 662.96,117.89 728.97,156 728.97,206.82 750.97,194.12 750.97,41.68 662.96,-9.13 662.96,-85.36 
			728.97,-47.25 772.98,-72.66 772.98,-98.06 728.97,-72.66 		"/>
		<polygon class="st1" points="750.97,-9.13 816.98,-47.25 816.98,-98.06 794.98,-110.77 794.98,-59.95 728.96,-21.84 
			684.96,-47.25 684.96,-21.84 816.98,54.38 904.99,3.56 971,41.68 904.99,79.79 904.99,130.6 926.99,143.3 926.99,92.49 993,54.38 
			1015.01,67.08 1037.01,79.79 1037.01,54.38 904.99,-21.84 816.98,28.97 		"/>
		<polygon class="st1" points="662.96,143.3 640.95,156 684.96,181.41 684.96,257.63 640.95,283.04 662.96,295.74 706.96,270.33 
			794.98,219.52 794.98,117.89 860.99,79.79 860.98,156 904.99,181.41 926.99,168.71 882.99,143.3 882.99,67.08 926.99,41.67 
			904.99,28.97 772.98,105.19 772.98,206.82 706.96,244.93 706.96,168.71 		"/>
		<polygon class="st1" points="772.98,79.79 794.98,67.08 772.98,54.38 		"/>
		<polygon class="st1" points="993,-174.28 971,-161.58 971,-9.14 1059.01,41.68 1059.01,117.89 993,79.79 949,105.19 949,130.6 
			993,105.19 1059.01,143.3 1059.01,194.12 1081.02,181.42 1081.02,28.98 993,-21.84 993,-98.06 1059.01,-59.95 1103.02,-85.36 
			1103.02,-110.76 1059.01,-85.36 993,-123.47 		"/>
		<polygon class="st1" points="1081.02,-21.84 1147.02,-59.95 1147.02,-110.76 1125.02,-123.47 1125.02,-72.65 1059.01,-34.54 
			1015.01,-59.95 1015.01,-34.54 1147.02,41.68 1235.04,-9.14 1301.05,28.98 1235.04,67.09 1235.04,117.9 1257.04,130.6 
			1257.04,79.79 1323.05,41.68 1345.05,54.38 1367.05,67.09 1367.05,41.68 1235.04,-34.54 1147.02,16.27 		"/>
		<polygon class="st1" points="993,130.6 971,143.3 1015.01,168.71 1015.01,244.93 971,270.34 993,283.04 1037.01,257.63 
			1125.02,206.82 1125.02,105.19 1191.04,67.09 1191.03,143.3 1235.04,168.71 1257.04,156.01 1213.04,130.6 1213.04,54.38 
			1257.04,28.97 1235.04,16.27 1103.02,92.49 1103.02,194.12 1037.01,232.23 1037.01,156.01 		"/>
		<polygon class="st1" points="1103.02,67.09 1125.02,54.38 1103.02,41.68 		"/>
		<polygon class="st1" points="1323.05,-186.98 1301.04,-174.28 1301.04,-21.84 1389.06,28.98 1389.06,105.19 1323.05,67.08 
			1279.04,92.49 1279.04,117.9 1323.05,92.49 1389.06,130.6 1389.06,181.41 1411.06,168.72 1411.06,16.27 1323.05,-34.54 
			1323.05,-110.76 1389.06,-72.65 1433.07,-98.06 1433.07,-123.46 1389.06,-98.06 1323.05,-136.17 		"/>
		<polygon class="st1" points="1411.06,-34.54 1477.07,-72.65 1477.07,-123.46 1455.07,-136.17 1455.07,-85.35 1389.05,-47.24 
			1345.05,-72.65 1345.05,-47.24 1477.07,28.98 1565.08,-21.84 1631.09,16.27 1565.08,54.39 1565.08,105.2 1587.08,117.9 
			1587.08,67.08 1653.09,28.98 1675.1,41.68 1697.1,54.39 1697.1,28.98 1565.08,-47.24 1477.07,3.57 		"/>
		<polygon class="st1" points="1543.08,41.68 1587.08,16.27 1565.08,3.57 1433.07,79.79 1433.07,181.41 1367.05,219.52 
			1367.05,143.31 1323.05,117.9 1301.04,130.6 1345.05,156.01 1345.05,232.23 1301.04,257.63 1323.05,270.34 1367.05,244.93 
			1455.07,194.12 1455.07,92.49 1521.08,54.39 1521.07,130.6 1565.08,156.01 1587.08,143.31 1543.08,117.9 		"/>
		<polygon class="st1" points="1433.07,54.39 1455.07,41.68 1433.07,28.98 		"/>
		<polygon class="st1" points="838.98,-34.54 794.97,-9.13 816.98,3.57 860.99,-21.84 949,-72.65 949,-174.28 1015.01,-212.38 
			1015.01,-136.17 1059.01,-110.76 1081.01,-123.46 1037.01,-148.87 1037.01,-225.09 1081.01,-250.5 1059.01,-263.2 927,-186.98 
			927,-85.35 860.99,-47.24 860.99,-123.46 816.98,-148.87 794.97,-136.17 838.98,-110.76 		"/>
		<polygon class="st1" points="508.94,-21.83 464.93,3.57 486.94,16.28 530.95,-9.13 618.96,-59.94 618.96,-161.57 684.97,-199.67 
			684.96,-123.46 728.98,-98.05 750.97,-110.75 706.97,-136.16 706.97,-212.38 750.97,-237.79 728.98,-250.49 596.96,-174.27 
			596.96,-72.65 530.95,-34.54 530.95,-110.75 486.94,-136.16 464.93,-123.46 508.94,-98.05 		"/>
		<polygon class="st1" points="244.9,511.71 266.9,499.01 266.9,346.57 178.89,295.76 178.89,219.53 244.9,257.64 288.91,232.23 
			288.91,206.83 244.9,232.23 178.89,194.12 178.89,143.31 156.88,156.01 156.88,308.45 244.9,359.27 244.9,435.49 178.89,397.38 
			134.88,422.78 134.88,448.19 178.89,422.78 244.9,460.89 		"/>
		<polygon class="st1" points="244.9,283.05 200.9,257.64 200.9,283.05 332.91,359.27 420.93,308.45 486.94,346.57 420.93,384.68 
			420.93,435.49 442.92,448.19 442.92,397.38 508.94,359.27 530.94,371.97 552.94,384.68 552.94,359.27 420.93,283.05 
			332.91,333.86 266.9,295.76 332.91,257.64 332.91,206.83 310.91,194.12 310.91,244.94 		"/>
		<polygon class="st1" points="200.9,486.3 200.9,562.52 156.88,587.93 178.89,600.63 222.9,575.22 310.91,524.41 310.91,422.78 
			376.92,384.68 376.92,460.89 420.93,486.3 442.92,473.6 398.92,448.19 398.92,371.97 442.92,346.56 420.93,333.86 288.91,410.09 
			288.91,511.71 222.9,549.82 222.9,473.6 178.89,448.19 156.88,460.89 		"/>
		<polygon class="st1" points="310.91,371.97 288.91,359.27 288.91,384.68 		"/>
		<polygon class="st1" points="90.89,321.15 156.9,359.26 90.89,397.37 90.89,448.18 112.88,460.89 112.88,410.07 178.9,371.96 
			200.9,384.66 222.9,397.37 222.9,371.96 90.89,295.74 2.87,346.56 -63.14,308.45 2.87,270.34 2.87,219.52 -19.13,206.82 
			-19.13,257.63 -85.14,295.74 -129.14,270.34 -129.14,295.74 2.87,371.96 		"/>
		<polygon class="st1" points="-19.13,537.11 -19.13,435.48 46.88,397.37 46.88,473.59 90.89,498.99 112.88,486.29 68.88,460.89 
			68.88,384.66 112.88,359.26 90.89,346.56 -41.13,422.78 -41.13,524.4 -107.14,562.51 -107.14,486.29 -151.15,460.89 
			-173.16,473.59 -129.14,498.99 -129.14,575.22 -173.16,600.62 -151.15,613.33 -107.14,587.92 		"/>
		<polygon class="st1" points="-63.13,613.33 2.88,651.44 -63.13,689.56 -63.13,740.37 -41.14,753.07 -41.14,702.25 24.88,664.15 
			46.88,676.85 68.88,689.56 68.88,664.15 -63.13,587.92 -151.15,638.74 -195.15,613.33 -195.15,638.74 -151.15,664.15 		"/>
		<polygon class="st1" points="68.88,181.41 68.88,232.22 90.89,219.52 90.89,67.08 2.88,16.27 2.88,-59.95 68.88,-21.84 
			112.89,-47.25 112.89,-72.66 68.88,-47.25 2.88,-85.36 2.88,-136.17 -19.13,-123.47 -19.13,28.97 68.88,79.79 68.88,156 
			2.88,117.89 -41.14,143.3 -41.14,168.71 2.88,143.3 		"/>
		<polygon class="st1" points="68.88,3.56 24.88,-21.84 24.88,3.56 156.89,79.79 244.91,28.97 310.92,67.08 244.91,105.2 
			244.91,156.01 266.91,168.71 266.91,117.89 332.92,79.79 354.92,92.49 376.92,105.2 376.92,79.79 244.91,3.56 156.89,54.38 
			90.89,16.27 156.89,-21.84 156.89,-72.66 134.89,-85.36 134.89,-34.55 		"/>
		<polygon class="st1" points="-19.13,308.44 2.88,321.15 46.88,295.74 134.89,244.93 134.89,143.3 200.9,105.2 200.9,181.41 
			244.91,206.82 266.91,194.12 222.91,168.71 222.91,92.49 266.91,67.08 244.91,54.38 112.89,130.6 112.89,232.22 46.88,270.33 
			46.88,194.12 2.88,168.71 -19.13,181.41 24.88,206.82 24.88,283.04 		"/>
		<polygon class="st1" points="134.89,92.49 112.89,79.79 112.89,105.2 		"/>
		<polygon class="st1" points="178.91,-9.12 134.9,16.28 156.9,28.99 200.91,3.58 288.92,-47.23 288.92,-148.86 354.93,-186.97 
			354.93,-110.75 398.94,-85.35 420.94,-98.04 376.93,-123.45 376.93,-199.68 420.94,-225.08 398.94,-237.78 266.92,-161.56 
			266.92,-59.94 200.91,-21.83 200.91,-98.04 156.9,-123.45 134.9,-110.75 178.91,-85.35 		"/>
		<polygon class="st1" points="-129.14,16.29 -41.13,-34.53 -41.13,-136.15 24.88,-174.26 24.87,-98.04 68.88,-72.64 90.88,-85.34 
			46.88,-110.75 46.88,-186.97 90.88,-212.37 68.88,-225.08 -63.14,-148.86 -63.14,-47.23 -129.14,-9.12 -129.14,-85.34 
			-173.15,-110.75 -195.15,-98.05 -195.15,-98.04 -151.15,-72.64 -151.15,3.58 -195.15,28.98 -195.15,28.99 -173.15,41.69 		"/>
		<polygon class="st1" points="-85.14,41.68 -19.13,79.79 -85.14,117.9 -85.14,168.72 -63.14,181.42 -63.14,130.6 2.87,92.5 
			24.88,105.19 46.87,117.9 46.87,92.5 -85.14,16.27 -173.16,67.09 -195.15,54.39 -195.15,79.79 -173.16,92.5 		"/>
		<polygon class="st1" points="1653.09,-199.68 1631.09,-186.98 1631.09,-34.54 1719.1,16.28 1719.1,92.49 1653.09,54.38 
			1609.08,79.79 1609.08,105.2 1653.09,79.79 1719.1,117.9 1719.1,168.71 1741.11,156.01 1741.11,3.57 1653.09,-47.24 
			1653.09,-123.46 1719.1,-85.35 1763.11,-110.76 1763.11,-136.17 1719.1,-110.76 1653.09,-148.87 		"/>
		<polygon class="st1" points="1983.14,16.28 2005.14,28.97 2027.14,41.69 2027.14,16.28 1895.13,-59.95 1807.11,-9.13 
			1741.11,-47.24 1807.11,-85.35 1807.11,-136.17 1785.11,-148.87 1785.11,-98.06 1719.1,-59.95 1675.1,-85.35 1675.1,-59.95 
			1807.11,16.28 1895.13,-34.54 1961.14,3.57 1895.13,41.69 1895.13,92.5 1917.13,105.2 1917.13,54.38 		"/>
		<polygon class="st1" points="1873.13,28.97 1917.13,3.57 1895.13,-9.13 1763.11,67.09 1763.11,168.71 1697.1,206.82 
			1697.1,130.61 1653.09,105.2 1631.09,117.9 1675.1,143.3 1675.1,219.53 1631.09,244.93 1653.09,257.64 1697.1,232.23 
			1785.11,181.42 1785.11,79.79 1851.12,41.69 1851.12,117.9 1895.13,143.3 1917.13,130.61 1873.13,105.2 		"/>
		<polygon class="st1" points="1763.11,16.28 1763.11,41.69 1785.11,28.97 		"/>
		<polygon class="st1" points="1829.12,130.6 1829.12,79.79 1807.11,92.49 1807.11,244.93 1895.13,295.75 1895.13,371.96 
			1829.12,333.85 1785.11,359.26 1785.11,384.67 1829.12,359.26 1895.13,397.37 1895.13,448.18 1917.13,435.48 1917.13,283.04 
			1829.12,232.23 1829.12,156.01 1895.13,194.12 1939.13,168.71 1939.13,143.3 1895.13,168.71 		"/>
		<polygon class="st1" points="1983.14,270.34 1917.13,232.23 1983.14,194.12 1983.14,143.3 1961.14,130.6 1961.14,181.41 
			1895.12,219.52 1851.12,194.12 1851.12,219.52 1983.14,295.75 2071.15,244.93 2115.15,270.33 2115.15,244.93 2071.15,219.52 		"/>
		<polygon class="st1" points="1939.13,448.18 1873.13,486.29 1873.13,410.08 1829.12,384.67 1807.11,397.37 1851.12,422.77 
			1851.12,499 1807.11,524.4 1829.12,537.11 1873.13,511.7 1961.14,460.89 1961.14,359.26 2027.15,321.16 2027.14,397.37 
			2071.15,422.77 2093.15,410.08 2049.15,384.67 2049.15,308.44 2093.15,283.04 2071.15,270.34 1939.13,346.56 		"/>
		<polygon class="st1" points="90.89,753.06 90.89,803.87 112.89,791.18 112.89,638.74 24.88,587.92 24.88,511.7 90.89,549.81 
			134.89,524.4 134.89,499 90.89,524.4 24.88,486.29 24.88,435.48 2.87,448.18 2.87,600.62 90.89,651.44 90.89,727.65 24.88,689.55 
			-19.13,714.95 -19.13,740.36 24.88,714.95 		"/>
		<polygon class="st1" points="332.92,638.74 266.91,676.85 266.91,727.66 288.91,740.36 288.91,689.55 354.92,651.44 
			376.93,664.14 398.92,676.85 398.92,651.44 266.91,575.22 178.9,626.03 112.89,587.92 178.9,549.81 178.9,499 156.9,486.29 
			156.9,537.11 90.88,575.22 46.88,549.81 46.88,575.22 178.9,651.44 266.91,600.62 		"/>
		<polygon class="st1" points="2.87,880.09 24.88,892.8 68.88,867.39 156.9,816.58 156.9,714.95 222.91,676.85 222.9,753.06 
			266.91,778.47 288.91,765.77 244.91,740.36 244.91,664.14 288.91,638.73 266.91,626.03 134.89,702.25 134.89,803.87 68.88,841.98 
			68.88,765.77 24.88,740.36 2.87,753.06 46.88,778.47 46.88,854.69 		"/>
		<polygon class="st1" points="156.9,664.14 134.89,651.44 134.89,676.85 		"/>
		<polygon class="st1" points="266.91,1083.35 288.92,1070.65 288.92,918.21 200.9,867.4 200.9,791.18 266.91,829.29 310.92,803.88 
			310.92,778.47 266.91,803.88 200.9,765.77 200.9,714.96 178.9,727.66 178.9,880.1 266.91,930.91 266.91,1007.13 200.9,969.02 
			156.89,994.43 156.89,1019.83 200.9,994.43 266.91,1032.54 		"/>
		<polygon class="st1" points="266.91,854.69 222.91,829.29 222.91,854.69 354.92,930.91 442.94,880.1 508.95,918.21 442.94,956.32 
			442.94,1007.13 464.94,1019.83 464.94,969.02 530.95,930.91 552.95,943.61 574.95,956.32 574.95,930.91 442.94,854.69 
			354.92,905.5 288.92,867.4 354.92,829.29 354.92,778.47 332.92,765.77 332.92,816.58 		"/>
		<polygon class="st1" points="420.94,1019.83 420.94,943.61 464.94,918.21 442.94,905.5 310.92,981.73 310.92,1083.35 
			244.91,1121.46 244.91,1045.24 200.9,1019.83 178.9,1032.54 222.91,1057.94 222.91,1134.16 178.9,1159.57 200.9,1172.27 
			244.91,1146.87 332.92,1096.05 332.92,994.43 398.93,956.32 398.93,1032.54 442.94,1057.94 464.94,1045.24 		"/>
		<polygon class="st1" points="332.92,943.61 310.92,930.91 310.92,956.32 		"/>
		<polygon class="st1" points="46.88,1159.58 46.88,1083.36 112.89,1121.47 156.89,1096.06 156.89,1070.65 112.89,1096.06 
			46.88,1057.95 46.88,1007.14 24.87,1019.84 24.87,1172.28 112.89,1223.1 112.89,1299.31 46.88,1261.2 2.87,1286.61 2.87,1312.02 
			46.88,1286.61 112.88,1324.71 134.89,1324.71 134.89,1210.39 		"/>
		<polygon class="st1" points="134.89,1159.58 200.9,1121.47 200.9,1070.65 178.9,1057.95 178.9,1108.76 112.88,1146.87 
			68.88,1121.47 68.88,1146.87 200.9,1223.1 288.91,1172.28 354.92,1210.39 288.91,1248.51 288.91,1299.32 310.91,1312.02 
			310.91,1261.2 376.92,1223.1 398.93,1235.8 420.92,1248.51 420.92,1223.1 288.91,1146.87 200.9,1197.69 		"/>
		<polygon class="st1" points="-63.14,867.4 -107.14,841.99 -107.14,867.4 24.87,943.62 112.89,892.8 178.9,930.92 112.89,969.03 
			112.89,1019.84 134.89,1032.54 134.89,981.73 200.9,943.62 222.9,956.32 244.9,969.03 244.9,943.62 112.89,867.4 24.87,918.21 
			-41.13,880.1 24.87,841.99 24.87,791.18 2.87,778.47 2.87,829.29 		"/>
		<polygon class="st1" points="-85.14,1159.57 2.87,1108.76 2.87,1007.13 68.88,969.03 68.88,1045.24 112.89,1070.65 
			134.89,1057.95 90.89,1032.54 90.89,956.32 134.89,930.91 112.89,918.21 -19.13,994.43 -19.13,1096.05 -85.14,1134.16 
			-85.14,1057.95 -129.14,1032.54 -151.15,1045.24 -107.14,1070.65 -107.14,1146.87 -151.15,1172.27 -129.14,1184.98 		"/>
		<polygon class="st1" points="2.87,956.32 -19.13,943.62 -19.13,969.03 		"/>
		<polygon class="st1" points="376.93,1146.87 376.93,1070.65 442.94,1108.76 486.94,1083.35 486.94,1057.95 442.94,1083.35 
			376.93,1045.24 376.93,994.43 354.92,1007.13 354.92,1159.57 442.94,1210.39 442.94,1286.6 376.93,1248.5 332.92,1273.9 
			332.92,1299.31 376.93,1273.9 442.94,1312.01 442.94,1324.71 464.94,1324.71 464.94,1197.69 		"/>
		<polygon class="st1" points="530.94,1184.98 464.94,1146.87 530.94,1108.76 530.94,1057.95 508.94,1045.24 508.94,1096.06 
			442.93,1134.17 398.93,1108.76 398.93,1134.17 530.94,1210.39 618.96,1159.57 684.97,1197.69 618.96,1235.8 618.96,1286.61 
			640.96,1299.31 640.96,1248.5 706.97,1210.39 728.98,1223.09 750.97,1235.8 750.97,1210.39 618.96,1134.17 		"/>
		<polygon class="st1" points="398.93,219.52 420.93,206.82 420.93,54.38 332.92,3.57 332.92,-72.65 398.93,-34.54 442.93,-59.95 
			442.93,-85.36 398.93,-59.95 332.92,-98.06 332.92,-148.87 310.91,-136.17 310.91,16.27 398.93,67.08 398.93,143.3 332.92,105.19 
			288.91,130.6 288.91,156.01 332.92,130.6 398.93,168.71 		"/>
		<polygon class="st1" points="420.93,3.57 486.94,-34.54 486.94,-85.36 464.94,-98.06 464.94,-47.25 398.92,-9.14 354.92,-34.54 
			354.92,-9.14 486.94,67.08 574.95,16.27 640.96,54.38 574.95,92.49 574.95,143.3 596.95,156.01 596.95,105.19 662.96,67.08 
			684.97,79.78 706.96,92.49 706.96,67.08 574.95,-9.14 486.94,41.68 		"/>
		<polygon class="st1" points="354.92,194.11 354.92,270.34 310.91,295.74 332.92,308.45 376.92,283.04 464.94,232.23 464.94,130.6 
			530.95,92.49 530.94,168.71 574.95,194.11 596.95,181.41 552.95,156.01 552.95,79.78 596.95,54.38 574.95,41.68 442.93,117.9 
			442.93,219.52 376.92,257.63 376.92,181.41 332.92,156.01 310.91,168.71 		"/>
		<polygon class="st1" points="464.94,79.78 442.93,67.08 442.93,92.49 		"/>
		<polygon class="st1" points="1499.07,92.49 1477.06,105.19 1477.06,257.63 1565.08,308.45 1565.08,384.66 1499.07,346.56 
			1455.06,371.96 1455.06,397.37 1499.07,371.96 1565.08,410.07 1565.08,460.89 1587.08,448.19 1587.08,295.75 1499.07,244.93 
			1499.07,168.71 1565.08,206.82 1609.09,181.41 1609.09,156.01 1565.08,181.41 1499.07,143.3 		"/>
		<polygon class="st1" points="1587.08,244.93 1653.09,206.82 1653.09,156.01 1631.09,143.3 1631.09,194.12 1565.08,232.23 
			1521.08,206.82 1521.08,232.23 1653.09,308.45 1741.11,257.63 1807.12,295.75 1741.11,333.86 1741.11,384.67 1763.11,397.37 
			1763.11,346.56 1829.12,308.45 1851.12,321.15 1873.12,333.86 1873.12,308.45 1741.11,232.23 1653.09,283.04 		"/>
		<polygon class="st1" points="1719.1,397.37 1719.1,321.15 1763.11,295.74 1741.11,283.04 1609.09,359.26 1609.09,460.89 
			1543.08,499 1543.08,422.78 1499.07,397.37 1477.06,410.07 1521.08,435.48 1521.08,511.7 1477.06,537.11 1499.07,549.81 
			1543.08,524.4 1631.09,473.59 1631.09,371.96 1697.1,333.86 1697.1,410.07 1741.11,435.48 1763.11,422.78 		"/>
		<polygon class="st1" points="1609.09,308.45 1609.09,333.86 1631.09,321.15 		"/>
		<polygon class="st1" points="1675.1,371.97 1653.09,384.67 1653.09,537.11 1741.1,587.93 1741.1,664.14 1675.1,626.03 
			1631.09,651.44 1631.09,676.85 1675.1,651.44 1741.1,689.55 1741.1,740.36 1763.11,727.66 1763.11,575.22 1675.1,524.41 
			1675.1,448.19 1741.1,486.3 1785.11,460.89 1785.11,435.48 1741.1,460.89 1675.1,422.78 		"/>
		<polygon class="st1" points="1829.12,562.52 1763.11,524.41 1829.12,486.3 1829.12,435.48 1807.11,422.78 1807.11,473.59 
			1741.1,511.7 1697.1,486.3 1697.1,511.7 1829.12,587.93 1917.13,537.11 1983.14,575.22 1917.13,613.33 1917.13,664.15 
			1939.13,676.85 1939.13,626.03 2005.14,587.93 2027.14,600.63 2049.15,613.33 2049.15,587.93 1917.13,511.7 		"/>
		<polygon class="st1" points="1895.13,600.63 1939.13,575.22 1917.13,562.52 1785.11,638.74 1785.11,740.36 1719.1,778.47 
			1719.1,702.26 1675.1,676.85 1653.09,689.55 1697.1,714.96 1697.1,791.18 1653.09,816.58 1675.1,829.29 1719.1,803.88 
			1807.12,753.07 1807.12,651.44 1873.13,613.33 1873.12,689.55 1917.13,714.96 1939.13,702.26 1895.13,676.85 		"/>
		<polygon class="st1" points="1785.11,587.93 1785.11,613.33 1807.11,600.63 		"/>
		<polygon class="st1" points="1851.12,702.25 1851.12,651.44 1829.11,664.14 1829.11,816.58 1917.13,867.4 1917.13,943.61 
			1851.12,905.5 1807.11,930.91 1807.11,956.32 1851.12,930.91 1917.13,969.02 1917.13,1019.83 1939.13,1007.14 1939.13,854.69 
			1851.12,803.88 1851.12,727.66 1917.13,765.77 1961.14,740.36 1961.14,714.96 1917.13,740.36 		"/>
		<polygon class="st1" points="2005.14,841.99 1939.13,803.88 2005.14,765.77 2005.14,714.96 1983.14,702.25 1983.14,753.07 
			1917.13,791.18 1873.13,765.77 1873.13,791.18 2005.14,867.4 2093.15,816.58 2115.15,829.28 2115.15,803.88 2093.15,791.18 		"/>
		<polygon class="st1" points="1961.14,918.21 1961.14,1019.83 1895.13,1057.94 1895.13,981.73 1851.12,956.32 1829.11,969.02 
			1873.13,994.43 1873.13,1070.65 1829.11,1096.05 1851.12,1108.76 1895.13,1083.35 1983.14,1032.54 1983.14,930.91 2049.15,892.81 
			2049.15,969.02 2093.15,994.43 2115.15,981.73 2115.15,981.73 2071.15,956.32 2071.15,880.1 2115.15,854.69 2115.15,854.69 
			2093.15,841.99 		"/>
		<polygon class="st1" points="904.99,486.3 927,473.6 927,321.15 838.98,270.34 838.98,194.12 904.99,232.23 949,206.82 
			949,181.42 904.99,206.82 838.98,168.71 838.98,117.9 816.98,130.6 816.98,283.04 904.99,333.86 904.99,410.07 838.98,371.97 
			794.98,397.37 794.98,422.78 838.98,397.37 904.99,435.48 		"/>
		<polygon class="st1" points="927,270.34 993,232.23 993,181.42 971,168.71 971,219.53 904.99,257.64 860.99,232.23 860.99,257.64 
			993,333.86 1081.02,283.04 1147.03,321.15 1081.02,359.27 1081.02,410.08 1103.02,422.78 1103.02,371.97 1169.03,333.86 
			1191.03,346.56 1213.03,359.27 1213.03,333.86 1081.02,257.64 993,308.45 		"/>
		<polygon class="st1" points="860.99,460.89 860.99,537.11 816.98,562.52 838.98,575.22 882.99,549.81 971,499 971,397.37 
			1037.02,359.27 1037.01,435.48 1081.02,460.89 1103.02,448.19 1059.02,422.78 1059.02,346.56 1103.02,321.15 1081.02,308.45 
			949,384.67 949,486.3 882.99,524.41 882.99,448.19 838.98,422.78 816.98,435.48 		"/>
		<polygon class="st1" points="971,346.56 949,333.86 949,359.27 		"/>
		<polygon class="st1" points="750.97,778.47 772.98,765.77 772.98,613.33 684.96,562.52 684.96,486.3 750.97,524.41 794.98,499 
			794.98,473.59 750.97,499 684.96,460.89 684.96,410.07 662.96,422.78 662.96,575.22 750.97,626.03 750.97,702.25 684.96,664.14 
			640.96,689.55 640.96,714.96 684.96,689.55 750.97,727.66 		"/>
		<polygon class="st1" points="993.01,613.33 927,651.44 927,702.25 949,714.96 949,664.14 1015.01,626.03 1037.01,638.73 
			1059.01,651.44 1059.01,626.03 927,549.81 838.98,600.63 772.98,562.52 838.98,524.41 838.98,473.59 816.98,460.89 816.98,511.7 
			750.97,549.81 706.97,524.41 706.97,549.81 838.98,626.03 927,575.22 		"/>
		<polygon class="st1" points="706.97,829.29 662.96,854.69 684.96,867.39 728.97,841.99 816.98,791.18 816.98,689.55 883,651.44 
			882.99,727.66 927,753.06 949,740.36 905,714.96 905,638.73 949,613.33 927,600.63 794.98,676.85 794.98,778.47 728.97,816.58 
			728.97,740.36 684.96,714.96 662.96,727.66 706.97,753.06 		"/>
		<polygon class="st1" points="794.98,626.03 794.98,651.44 816.98,638.73 		"/>
		<polygon class="st1" points="1015.01,397.37 993,410.08 993,562.52 1081.02,613.33 1081.02,689.55 1015.01,651.44 971,676.85 
			971,702.25 1015.01,676.85 1081.02,714.96 1081.02,765.77 1103.02,753.07 1103.02,600.63 1015.01,549.82 1015.01,473.59 
			1081.02,511.7 1125.02,486.3 1125.02,460.89 1081.02,486.3 1015.01,448.19 		"/>
		<polygon class="st1" points="1345.05,613.33 1367.06,626.03 1389.06,638.74 1389.06,613.33 1257.04,537.11 1169.03,587.92 
			1103.02,549.82 1169.03,511.7 1169.03,460.89 1147.02,448.19 1147.02,499 1081.01,537.11 1037.01,511.7 1037.01,537.11 
			1169.03,613.33 1257.04,562.52 1323.05,600.63 1257.04,638.74 1257.04,689.55 1279.04,702.25 1279.04,651.44 		"/>
		<polygon class="st1" points="1257.04,740.36 1279.04,727.66 1235.04,702.25 1235.04,626.03 1279.04,600.63 1257.04,587.92 
			1125.02,664.15 1125.02,765.77 1059.01,803.88 1059.01,727.66 1015.01,702.25 993,714.96 1037.01,740.36 1037.01,816.58 
			993,841.99 1015.01,854.69 1059.01,829.29 1147.03,778.47 1147.03,676.85 1213.04,638.74 1213.03,714.96 		"/>
		<polygon class="st1" points="1125.02,613.33 1125.02,638.74 1147.02,626.03 		"/>
		<polygon class="st1" points="1257.04,1045.24 1279.04,1032.54 1279.04,880.1 1191.03,829.29 1191.03,753.07 1257.04,791.18 
			1301.05,765.77 1301.05,740.36 1257.04,765.77 1191.03,727.66 1191.03,676.85 1169.02,689.55 1169.02,841.99 1257.04,892.81 
			1257.04,969.02 1191.03,930.91 1147.02,956.32 1147.02,981.73 1191.03,956.32 1257.04,994.43 		"/>
		<polygon class="st1" points="1499.08,880.1 1433.07,918.21 1433.07,969.03 1455.07,981.73 1455.07,930.91 1521.08,892.81 
			1543.08,905.5 1565.08,918.21 1565.08,892.81 1433.07,816.58 1345.05,867.4 1279.04,829.29 1345.05,791.18 1345.05,740.36 
			1323.05,727.66 1323.05,778.47 1257.04,816.58 1213.04,791.18 1213.04,816.58 1345.05,892.81 1433.07,841.99 		"/>
		<polygon class="st1" points="1411.06,981.73 1411.06,905.5 1455.07,880.1 1433.07,867.4 1301.05,943.62 1301.05,1045.24 
			1235.04,1083.35 1235.04,1007.14 1191.03,981.73 1169.02,994.43 1213.04,1019.83 1213.04,1096.06 1169.02,1121.46 
			1191.03,1134.17 1235.04,1108.76 1323.05,1057.95 1323.05,956.32 1389.06,918.21 1389.06,994.43 1433.07,1019.83 1455.07,1007.14 
					"/>
		<polygon class="st1" points="1301.05,892.81 1301.05,918.21 1323.05,905.5 		"/>
		<polygon class="st1" points="1345.05,384.67 1323.04,397.37 1323.04,549.81 1411.06,600.63 1411.06,676.85 1345.05,638.74 
			1301.04,664.14 1301.04,689.55 1345.05,664.14 1411.06,702.25 1411.06,753.07 1433.06,740.37 1433.06,587.93 1345.05,537.11 
			1345.05,460.89 1411.06,499 1455.07,473.59 1455.07,448.19 1411.06,473.59 1345.05,435.48 		"/>
		<polygon class="st1" points="1675.1,600.63 1697.1,613.33 1719.1,626.04 1719.1,600.63 1587.09,524.41 1499.07,575.22 
			1433.06,537.11 1499.07,499 1499.07,448.19 1477.07,435.48 1477.07,486.3 1411.06,524.41 1367.06,499 1367.06,524.41 
			1499.07,600.63 1587.09,549.81 1653.1,587.93 1587.09,626.04 1587.09,676.85 1609.09,689.55 1609.09,638.74 		"/>
		<polygon class="st1" points="1565.08,689.55 1565.08,613.33 1609.09,587.92 1587.09,575.22 1455.07,651.44 1455.07,753.07 
			1389.06,791.18 1389.06,714.96 1345.05,689.55 1323.04,702.25 1367.06,727.66 1367.06,803.88 1323.04,829.29 1345.05,841.99 
			1389.06,816.58 1477.07,765.77 1477.07,664.14 1543.08,626.04 1543.08,702.25 1587.09,727.66 1609.09,714.96 		"/>
		<polygon class="st1" points="1455.07,600.63 1455.07,626.04 1477.07,613.33 		"/>
		<polygon class="st1" points="1521.08,664.15 1499.07,676.85 1499.07,829.29 1587.08,880.1 1587.08,956.32 1521.08,918.21 
			1477.07,943.62 1477.07,969.03 1521.08,943.62 1587.08,981.73 1587.08,1032.54 1609.09,1019.84 1609.09,867.4 1521.08,816.59 
			1521.08,740.37 1587.08,778.48 1631.09,753.07 1631.09,727.66 1587.08,753.07 1521.08,714.96 		"/>
		<polygon class="st1" points="1851.12,880.1 1873.12,892.8 1895.12,905.51 1895.12,880.1 1763.11,803.88 1675.1,854.7 
			1609.09,816.59 1675.1,778.48 1675.1,727.66 1653.09,714.96 1653.09,765.77 1587.08,803.88 1543.08,778.48 1543.08,803.88 
			1675.1,880.1 1763.11,829.29 1829.12,867.4 1763.11,905.51 1763.11,956.32 1785.11,969.03 1785.11,918.21 		"/>
		<polygon class="st1" points="1741.11,892.8 1785.11,867.4 1763.11,854.7 1631.09,930.92 1631.09,1032.54 1565.08,1070.65 
			1565.08,994.43 1521.08,969.03 1499.07,981.73 1543.08,1007.13 1543.08,1083.36 1499.07,1108.76 1521.08,1121.47 1565.08,1096.06 
			1653.1,1045.25 1653.1,943.62 1719.11,905.51 1719.1,981.73 1763.11,1007.13 1785.11,994.43 1741.11,969.03 		"/>
		<polygon class="st1" points="1631.09,880.1 1631.09,905.51 1653.09,892.8 		"/>
		<polygon class="st1" points="1697.1,1096.06 1697.1,1019.84 1763.11,1057.95 1807.12,1032.54 1807.12,1007.14 1763.11,1032.54 
			1697.1,994.43 1697.1,943.62 1675.09,956.32 1675.09,1108.76 1763.11,1159.58 1763.11,1235.79 1697.1,1197.69 1653.09,1223.09 
			1653.09,1248.5 1697.1,1223.09 1763.11,1261.2 1763.11,1312.02 1785.11,1299.32 1785.11,1146.87 		"/>
		<polygon class="st1" points="1763.11,1083.36 1719.11,1057.95 1719.11,1083.36 1851.12,1159.58 1939.13,1108.76 2005.15,1146.87 
			1939.13,1184.99 1939.13,1235.8 1961.13,1248.5 1961.13,1197.69 2027.15,1159.58 2049.15,1172.28 2071.15,1184.99 
			2071.15,1159.58 1939.13,1083.36 1851.12,1134.17 1785.11,1096.06 1851.12,1057.95 1851.12,1007.14 1829.12,994.43 
			1829.12,1045.25 		"/>
		<polygon class="st1" points="1455.07,1159.58 1367.06,1108.77 1367.06,1032.55 1433.06,1070.66 1477.07,1045.25 1477.07,1019.84 
			1433.06,1045.25 1367.06,1007.14 1367.06,956.33 1345.05,969.03 1345.05,1121.47 1433.06,1172.29 1433.06,1248.5 1367.06,1210.39 
			1323.05,1235.8 1323.05,1261.21 1367.06,1235.8 1433.06,1273.91 1433.06,1324.71 1433.08,1324.71 1455.07,1312.02 		"/>
		<polygon class="st1" points="1697.1,1172.29 1719.1,1184.98 1741.1,1197.69 1741.1,1172.29 1609.09,1096.06 1521.08,1146.88 
			1455.07,1108.77 1521.08,1070.66 1521.08,1019.84 1499.07,1007.14 1499.07,1057.95 1433.06,1096.06 1389.06,1070.66 
			1389.06,1096.06 1521.08,1172.29 1609.09,1121.47 1675.1,1159.58 1609.09,1197.69 1609.09,1248.51 1631.09,1261.21 
			1631.09,1210.39 		"/>
		<polygon class="st1" points="1037.01,1121.48 1037.01,1045.25 1103.02,1083.36 1147.03,1057.96 1147.03,1032.55 1103.02,1057.96 
			1037.01,1019.85 1037.01,969.03 1015,981.74 1015,1134.18 1103.02,1184.99 1103.02,1261.21 1037.01,1223.1 993,1248.51 
			993,1273.91 1037.01,1248.51 1103.02,1286.61 1103.02,1324.71 1125.02,1324.71 1125.02,1172.29 		"/>
		<polygon class="st1" points="1125.02,1121.48 1191.03,1083.36 1191.03,1032.55 1169.03,1019.85 1169.03,1070.66 1103.02,1108.77 
			1059.02,1083.36 1059.02,1108.77 1191.03,1184.99 1279.05,1134.18 1345.06,1172.29 1279.05,1210.4 1279.05,1261.21 
			1301.05,1273.91 1301.05,1223.1 1367.06,1184.99 1389.06,1197.69 1411.06,1210.4 1411.06,1184.99 1279.05,1108.77 
			1191.03,1159.58 		"/>
		<polygon class="st1" points="706.97,1134.17 706.97,1057.95 772.98,1096.06 816.98,1070.65 816.98,1045.24 772.98,1070.65 
			706.97,1032.54 706.97,981.73 684.96,994.43 684.96,1146.87 772.98,1197.69 772.98,1273.9 706.97,1235.79 662.96,1261.2 
			662.96,1286.61 706.97,1261.2 772.98,1299.31 772.98,1324.71 794.98,1324.71 794.98,1184.98 		"/>
		<polygon class="st1" points="860.99,1172.28 794.98,1134.17 860.99,1096.06 860.99,1045.24 838.98,1032.54 838.98,1083.35 
			772.97,1121.46 728.97,1096.06 728.97,1121.46 860.99,1197.69 949,1146.87 1015.01,1184.98 949,1223.09 949,1273.91 971,1286.61 
			971,1235.79 1037.01,1197.69 1059.02,1210.38 1081.02,1223.09 1081.02,1197.69 949,1121.46 		"/>
		<polygon class="st1" points="1235.04,321.15 1235.04,397.37 1169.03,359.26 1125.02,384.67 1125.02,410.07 1169.03,384.67 
			1235.04,422.78 1235.04,473.59 1257.04,460.89 1257.04,308.45 1169.03,257.64 1169.03,181.41 1235.04,219.52 1279.05,194.12 
			1279.05,168.71 1235.04,194.12 1169.03,156.01 1169.03,105.19 1147.02,117.9 1147.02,270.34 		"/>
		<polygon class="st1" points="1257.04,257.64 1323.05,219.52 1323.05,168.71 1301.05,156.01 1301.05,206.82 1235.04,244.93 
			1191.04,219.52 1191.04,244.93 1323.05,321.15 1411.06,270.34 1477.08,308.45 1411.06,346.56 1411.06,397.37 1433.06,410.07 
			1433.06,359.26 1499.08,321.15 1521.08,333.85 1543.08,346.56 1543.08,321.15 1411.06,244.93 1323.05,295.74 		"/>
		<polygon class="st1" points="1389.06,410.07 1389.06,333.85 1433.06,308.45 1411.06,295.74 1279.05,371.97 1279.05,473.59 
			1213.04,511.7 1213.04,435.48 1169.03,410.07 1147.02,422.78 1191.04,448.18 1191.04,524.4 1147.02,549.81 1169.03,562.52 
			1213.04,537.1 1301.05,486.29 1301.05,384.67 1367.06,346.56 1367.06,422.78 1411.06,448.18 1433.06,435.48 		"/>
		<polygon class="st1" points="1279.05,321.15 1279.05,346.56 1301.05,333.85 		"/>
		<polygon class="st1" points="596.95,1070.65 618.95,1057.95 618.95,905.51 530.94,854.7 530.94,778.47 596.95,816.58 
			640.96,791.18 640.96,765.77 596.95,791.18 530.94,753.07 530.94,702.25 508.93,714.96 508.93,867.39 596.95,918.21 
			596.95,994.43 530.94,956.32 486.93,981.72 486.93,1007.13 530.94,981.72 596.95,1019.83 		"/>
		<polygon class="st1" points="838.99,905.51 772.98,943.62 772.98,994.43 794.98,1007.13 794.98,956.32 860.99,918.21 
			882.99,930.91 904.99,943.62 904.99,918.21 772.98,841.99 684.96,892.8 618.95,854.7 684.96,816.58 684.96,765.77 662.96,753.07 
			662.96,803.88 596.95,841.99 552.95,816.58 552.95,841.99 684.96,918.21 772.98,867.39 		"/>
		<polygon class="st1" points="750.97,1007.13 750.97,930.91 794.98,905.5 772.98,892.8 640.96,969.03 640.96,1070.65 
			574.95,1108.76 574.95,1032.54 530.94,1007.13 508.93,1019.83 552.95,1045.24 552.95,1121.46 508.93,1146.87 530.94,1159.57 
			574.95,1134.16 662.96,1083.35 662.96,981.72 728.97,943.62 728.97,1019.83 772.98,1045.24 794.98,1032.54 		"/>
		<polygon class="st1" points="640.96,918.21 640.96,943.62 662.96,930.91 		"/>
		<polygon class="st1" points="927,1057.95 949,1045.25 949,892.81 860.99,841.99 860.99,765.77 927,803.88 971.01,778.47 
			971.01,753.07 927,778.47 860.99,740.36 860.99,689.55 838.98,702.25 838.98,854.69 927,905.51 927,981.72 860.99,943.62 
			816.98,969.02 816.98,994.43 860.99,969.02 927,1007.13 		"/>
		<polygon class="st1" points="1169.04,892.81 1103.02,930.92 1103.02,981.73 1125.02,994.43 1125.02,943.62 1191.04,905.51 
			1213.04,918.21 1235.04,930.92 1235.04,905.51 1103.02,829.29 1015.01,880.1 949,841.99 1015.01,803.88 1015.01,753.07 
			993.01,740.36 993.01,791.18 927,829.29 883,803.88 883,829.29 1015.01,905.51 1103.02,854.69 		"/>
		<polygon class="st1" points="1081.02,994.43 1081.02,918.21 1125.02,892.8 1103.02,880.1 971.01,956.32 971.01,1057.95 
			905,1096.06 905,1019.84 860.99,994.43 838.98,1007.13 883,1032.54 883,1108.76 838.98,1134.17 860.99,1146.87 905,1121.46 
			993.01,1070.65 993.01,969.02 1059.02,930.92 1059.02,1007.13 1103.02,1032.54 1125.02,1019.84 		"/>
		<polygon class="st1" points="971.01,905.51 971.01,930.92 993.01,918.21 		"/>
		<polygon class="st1" points="134.89,295.74 134.89,270.33 112.89,283.05 		"/>
		<polygon class="st1" points="156.9,867.4 156.9,841.99 134.89,854.7 		"/>
		<polygon class="st1" points="310.9,575.22 310.9,549.81 288.9,562.53 		"/>
		<polygon class="st1" points="486.93,854.69 486.93,829.29 464.93,842 		"/>
		<polygon class="st1" points="464.93,283.04 464.93,257.63 442.93,270.34 		"/>
		<polygon class="st1" points="288.91,3.57 288.91,-21.84 266.9,-9.13 		"/>
		<polygon class="st1" points="640.96,562.52 640.96,537.11 618.96,549.82 		"/>
		<polygon class="st1" points="971,549.81 971,524.41 949,537.12 		"/>
		<polygon class="st1" points="1125.02,257.63 1125.02,232.23 1103.02,244.94 		"/>
		<polygon class="st1" points="1147.02,803.88 1125.02,816.59 1147.02,829.29 		"/>
		<polygon class="st1" points="794.98,270.34 794.98,244.93 772.97,257.64 		"/>
		<polygon class="st1" points="816.98,816.58 794.97,829.29 816.98,841.99 		"/>
		<polygon class="st1" points="1279.04,524.41 1301.04,537.11 1301.04,511.7 		"/>
		<polygon class="st1" points="1455.06,803.89 1477.07,816.58 1477.07,791.18 		"/>
		<polygon class="st1" points="1455.07,244.93 1455.07,219.52 1433.06,232.24 		"/>
		<polygon class="st1" points="1609.08,511.71 1631.09,524.41 1631.09,499 		"/>
		<polygon class="st1" points="1653.09,1096.06 1653.09,1070.65 1631.09,1083.36 		"/>
		<polygon class="st1" points="1763.11,219.53 1785.11,232.23 1785.11,206.82 		"/>
		<polygon class="st1" points="1785.11,791.19 1807.11,803.88 1807.11,778.47 		"/>
	</g>
</g>
</svg>
