<?xml version="1.0" encoding="utf-8" ?>
<svg xmlns="http://www.w3.org/2000/svg" xmlns:xlink="http://www.w3.org/1999/xlink" width="1024" height="1024">
	<path fill="#53072B" d="M0 0L495.565 0L529.423 0L1024 0L1024 494.109L1024 523.224L1024 1024L529.293 1024L501.063 1024L0 1024L0 533.285L0 492.546L0 0Z"/>
	<path fill="#5B4440" d="M277.52 184.249L477.882 184.003L637.808 184.11L681.868 184.078C690.004 184.075 699.331 183.297 707.285 184.823C713.73 186.059 720.825 190.429 725.411 195.076C734.9 204.692 735.592 214.685 735.553 227.507L735.452 247.587L611.75 247.391L153.373 247.004C153.358 237.492 152.094 214.948 154.382 206.8C155.811 201.711 158.844 196.925 162.552 193.192C166.098 189.624 170.756 186.442 175.67 185.226C184.136 183.13 201.027 184.31 210.32 184.306L277.52 184.249Z"/>
	<path fill="#53072B" d="M284.766 201.558C288.068 201.371 290.978 201.333 294.082 202.703Q294.822 203.032 295.525 203.435Q296.227 203.837 296.886 204.309Q297.544 204.78 298.151 205.316Q298.759 205.852 299.308 206.447Q299.858 207.041 300.345 207.688Q300.832 208.335 301.251 209.029Q301.67 209.722 302.016 210.454Q302.362 211.186 302.633 211.949C304.219 216.346 303.805 221.373 301.694 225.525C299.4 230.036 295.883 232.491 291.16 233.957C287.896 234.305 284.646 234.048 281.615 232.711C277.656 230.963 274.707 227.66 273.274 223.592C271.745 219.255 271.874 214.167 273.932 210.022C276.26 205.335 280.018 203.161 284.766 201.558Z"/>
	<path fill="#942215" d="M285.13 204.53C286.848 204.446 288.573 204.332 290.257 204.757C293.944 205.688 297.182 207.986 298.999 211.356Q299.305 211.929 299.554 212.53Q299.802 213.131 299.99 213.753Q300.178 214.376 300.304 215.013Q300.43 215.651 300.492 216.298Q300.555 216.945 300.553 217.595Q300.552 218.246 300.486 218.892Q300.421 219.539 300.292 220.176Q300.163 220.814 299.972 221.435C298.477 226.283 295.073 228.824 290.743 230.96C288.487 231.256 286.17 231.175 284.031 230.349C280.636 229.039 278.05 226.499 276.603 223.17C275.096 219.705 274.861 215.624 276.361 212.113C278.125 207.984 281.208 206.203 285.13 204.53Z"/>
	<path fill="#53072B" d="M240.707 201.619C244.035 201.362 247.222 201.636 250.27 203.09Q250.984 203.427 251.659 203.837Q252.334 204.246 252.963 204.723Q253.592 205.2 254.168 205.739Q254.745 206.279 255.262 206.875Q255.779 207.471 256.232 208.118Q256.685 208.765 257.068 209.455Q257.452 210.145 257.762 210.871Q258.072 211.597 258.305 212.351Q258.561 213.195 258.73 214.061Q258.9 214.927 258.981 215.805Q259.063 216.683 259.056 217.565Q259.049 218.447 258.954 219.324Q258.858 220.201 258.675 221.064Q258.492 221.927 258.223 222.767Q257.954 223.607 257.602 224.416Q257.25 225.225 256.818 225.994C254.204 230.61 250.334 232.517 245.41 233.759Q244.266 233.891 243.114 233.866Q241.963 233.841 240.825 233.661Q239.688 233.48 238.585 233.147Q237.482 232.814 236.435 232.335Q235.706 232.01 235.013 231.613Q234.32 231.216 233.671 230.752Q233.021 230.287 232.422 229.759Q231.823 229.231 231.28 228.646Q230.737 228.06 230.256 227.423Q229.775 226.786 229.361 226.103Q228.947 225.421 228.603 224.7Q228.26 223.979 227.991 223.227C226.515 219.113 226.868 214.688 228.863 210.818C231.396 205.903 235.523 203.151 240.707 201.619Z"/>
	<path fill="#942215" d="M241.852 204.595Q242.737 204.565 243.619 204.645Q244.502 204.724 245.367 204.912Q246.233 205.1 247.069 205.393Q247.905 205.686 248.698 206.08C251.795 207.656 254.117 210.296 255.174 213.621Q255.368 214.237 255.501 214.869Q255.635 215.501 255.705 216.142Q255.776 216.784 255.784 217.43Q255.792 218.076 255.736 218.719Q255.681 219.362 255.563 219.997Q255.445 220.632 255.265 221.252Q255.086 221.873 254.847 222.473Q254.608 223.072 254.311 223.646C252.188 227.741 248.913 229.649 244.653 231.004C241.975 231.18 239.197 230.414 236.901 229.042C233.865 227.229 231.716 224.117 230.887 220.701Q230.731 220.058 230.639 219.403Q230.548 218.748 230.523 218.087Q230.498 217.426 230.539 216.766Q230.58 216.106 230.687 215.453Q230.795 214.8 230.967 214.161Q231.139 213.523 231.374 212.904Q231.609 212.286 231.905 211.695Q232.201 211.103 232.555 210.544C234.808 206.994 237.868 205.47 241.852 204.595Z"/>
	<path fill="#53072B" d="M193.766 201.574C197.497 201.282 200.764 201.562 204.128 203.305Q204.843 203.678 205.518 204.119Q206.192 204.561 206.82 205.067Q207.448 205.573 208.023 206.138Q208.597 206.704 209.113 207.323Q209.629 207.943 210.082 208.61Q210.534 209.278 210.918 209.987Q211.302 210.696 211.615 211.439Q211.927 212.182 212.164 212.953Q212.4 213.716 212.559 214.498Q212.718 215.281 212.798 216.075Q212.879 216.869 212.881 217.668Q212.882 218.466 212.805 219.261Q212.727 220.056 212.571 220.839Q212.416 221.622 212.183 222.385Q211.95 223.149 211.643 223.886Q211.336 224.623 210.957 225.326C208.572 229.704 204.727 231.955 200.077 233.323C196.478 234.025 193.122 233.955 189.725 232.426C185.848 230.681 183.075 227.269 181.71 223.287Q181.436 222.51 181.24 221.709Q181.044 220.908 180.928 220.092Q180.813 219.276 180.778 218.452Q180.744 217.629 180.792 216.806Q180.84 215.983 180.969 215.169Q181.099 214.355 181.308 213.558Q181.517 212.76 181.805 211.988Q182.092 211.215 182.455 210.475C184.882 205.62 188.878 203.334 193.766 201.574Z"/>
	<path fill="#942215" d="M195.956 204.583C197.998 204.58 199.767 204.8 201.67 205.59C204.948 206.949 207.422 209.324 208.644 212.687Q208.865 213.295 209.024 213.922Q209.183 214.549 209.278 215.189Q209.373 215.829 209.403 216.476Q209.433 217.122 209.398 217.768Q209.363 218.414 209.262 219.054Q209.162 219.693 208.998 220.319Q208.833 220.945 208.607 221.551Q208.38 222.157 208.094 222.737C205.934 227.154 202.371 229.202 197.946 230.79C195.545 230.966 193.201 230.598 191.024 229.528C187.847 227.967 185.589 225.232 184.551 221.855Q184.343 221.186 184.205 220.498Q184.068 219.811 184.002 219.113Q183.937 218.415 183.945 217.715Q183.952 217.014 184.032 216.318Q184.112 215.621 184.264 214.937Q184.416 214.253 184.639 213.588Q184.861 212.923 185.151 212.285Q185.441 211.647 185.796 211.043C188.182 207.063 191.603 205.579 195.956 204.583Z"/>
	<path fill="#890E3B" d="M613.362 206.656C622.344 206.257 631.46 206.576 640.459 206.594L692.668 206.82C694.851 208.098 696.031 209.512 697.462 211.589C697.575 215.643 698.41 221.065 697.154 224.935C696.221 227.812 694.289 228.924 691.707 230.217C691.545 230.233 691.383 230.252 691.22 230.265C678.573 231.253 665.271 230.482 652.546 230.473C641.111 230.464 629.048 231.21 617.699 230.273C615.339 230.078 611.227 229.652 609.498 227.977C606.042 224.629 607.297 216.042 607.446 211.622C609.2 208.934 610.279 207.679 613.362 206.656Z"/>
	<path fill="#100033" d="M614.051 209.675L663.998 209.857C672.462 209.865 681.495 209.226 689.882 209.985C691.145 210.099 692.461 210.134 693.33 211.192C695.362 213.669 694.599 219.778 694.109 222.675C693.76 224.732 693.008 225.481 691.357 226.677C683.923 227.219 676.345 226.996 668.891 227.002Q650.02 227.06 631.149 226.893C626.364 226.868 620.596 227.942 615.966 227.096C614.33 226.797 612.895 226.093 611.978 224.636C610.429 222.176 610.208 214.623 611.332 211.949C611.924 210.541 612.776 210.307 614.051 209.675Z"/>
	<path fill="#5B4440" d="M374.464 463.784C374.467 454.612 373.173 428.008 375.282 420.927C376.425 417.09 378.794 413.752 381.62 410.962C387.96 404.705 397.958 399.977 406.799 398.88C412.853 398.129 419.191 398.396 425.293 398.358L455.731 398.232L560.584 398.362Q695.977 397.864 831.368 398.91C856.366 399.074 881.404 398.597 906.395 399.003C915.723 399.154 923.133 401.914 929.66 408.683C932.923 412.067 935.577 416.103 936.937 420.631C939.664 429.715 937.978 453.212 938.17 463.957L938.197 467.797L375.096 467.587L375.911 466.951L375.769 465.064L376.985 464.341L374.464 463.784Z"/>
	<path fill="#53072B" d="M494.241 416.595C497.235 416.303 499.973 416.574 502.756 417.784Q503.427 418.072 504.066 418.426Q504.705 418.781 505.305 419.198Q505.905 419.615 506.459 420.091Q507.014 420.567 507.517 421.096Q508.021 421.626 508.468 422.204Q508.915 422.781 509.302 423.401Q509.688 424.021 510.01 424.677Q510.332 425.333 510.586 426.018Q510.855 426.76 511.045 427.526Q511.236 428.292 511.346 429.073Q511.456 429.854 511.485 430.643Q511.514 431.432 511.461 432.219Q511.408 433.006 511.274 433.784Q511.14 434.562 510.926 435.321Q510.712 436.081 510.421 436.814Q510.13 437.548 509.764 438.247C507.535 442.532 504.243 444.642 499.779 446.134C496.9 446.262 494.205 446.203 491.502 445.096C487.726 443.55 484.715 440.655 483.176 436.855C481.698 433.204 481.697 429.167 483.312 425.562C485.485 420.71 489.491 418.365 494.241 416.595Z"/>
	<path fill="#722732" d="M494.565 419.594C496.295 419.521 498.052 419.407 499.745 419.841C502.738 420.609 505.384 422.403 506.896 425.129C508.374 427.795 508.598 431.017 507.696 433.911C506.309 438.36 503.192 440.77 499.287 442.932C497.398 443.119 495.45 443.247 493.603 442.7C490.571 441.802 488.052 439.526 486.707 436.686C485.271 433.653 485.085 429.988 486.33 426.86C487.917 422.871 490.739 421.144 494.565 419.594Z"/>
	<path fill="#53072B" d="M418.63 445.876C417.047 446.238 415.534 446.499 413.901 446.388C409.837 446.111 406.273 444.442 403.661 441.283Q403.148 440.66 402.7 439.988Q402.253 439.317 401.876 438.603Q401.5 437.889 401.198 437.14Q400.896 436.391 400.672 435.616Q400.448 434.841 400.304 434.046Q400.16 433.252 400.098 432.447Q400.036 431.642 400.056 430.836Q400.077 430.029 400.179 429.228C400.713 425.103 402.845 420.959 406.268 418.51C409.498 416.199 413.439 415.711 417.269 416.49C421.821 417.415 424.81 419.574 427.326 423.419C429.482 427.202 430.268 430.976 429.087 435.26C428.045 439.043 425.548 442.533 422.113 444.495C421.027 445.116 419.817 445.498 418.63 445.876Z"/>
	<path fill="#942215" d="M419.223 442.803C416.254 443.452 413.837 443.834 410.903 442.813C407.851 441.75 405.598 439.45 404.296 436.523Q404.03 435.928 403.824 435.309Q403.617 434.691 403.474 434.055Q403.33 433.419 403.251 432.772Q403.171 432.124 403.156 431.473Q403.141 430.821 403.191 430.171Q403.24 429.521 403.355 428.879Q403.469 428.237 403.646 427.609Q403.823 426.982 404.062 426.375C405.168 423.573 407.267 421.104 410.071 419.908C413.213 418.569 416.904 418.93 419.976 420.3C423.87 422.037 425.442 425.415 426.78 429.215C426.875 433.389 426.467 436.217 423.532 439.32C422.65 440.252 421.637 440.977 420.615 441.741L419.223 442.803Z"/>
	<path fill="#53072B" d="M442.571 425.307C444.288 421.361 447.388 417.969 451.5 416.448C454.828 415.216 459.612 415.817 462.762 417.332C466.379 419.071 468.986 422.298 470.257 426.075Q470.518 426.846 470.701 427.638Q470.883 428.431 470.984 429.239Q471.086 430.046 471.105 430.859Q471.124 431.673 471.061 432.484Q470.998 433.295 470.853 434.096Q470.708 434.897 470.484 435.679Q470.259 436.461 469.956 437.216Q469.653 437.971 469.276 438.692C467.512 442.092 464.572 444.768 460.881 445.894C456.744 447.156 452.204 446.27 448.496 444.17C445.847 442.671 443.873 440.295 442.663 437.513C441.081 433.21 440.873 429.614 442.571 425.307Z"/>
	<path fill="#942215" d="M453.632 419.063C455.679 418.869 457.659 418.801 459.645 419.432Q460.249 419.622 460.831 419.873Q461.412 420.124 461.965 420.433Q462.518 420.742 463.037 421.106Q463.556 421.469 464.035 421.884Q464.513 422.299 464.948 422.76Q465.382 423.221 465.766 423.724Q466.151 424.228 466.483 424.767Q466.814 425.307 467.089 425.878Q467.361 426.435 467.574 427.017Q467.787 427.6 467.937 428.201Q468.088 428.802 468.175 429.416Q468.262 430.03 468.285 430.649Q468.307 431.269 468.265 431.887Q468.222 432.506 468.116 433.117Q468.009 433.727 467.839 434.324Q467.669 434.92 467.438 435.495C465.826 439.456 462.796 441.492 459.001 443.108C456.666 443.387 454.624 443.531 452.361 442.77Q451.786 442.574 451.234 442.319Q450.683 442.064 450.161 441.753Q449.639 441.442 449.152 441.078Q448.665 440.715 448.219 440.302Q447.773 439.889 447.373 439.432Q446.973 438.975 446.622 438.479Q446.271 437.983 445.975 437.453Q445.678 436.922 445.438 436.364C444.06 433.234 443.916 429.526 445.244 426.356C446.924 422.346 449.734 420.617 453.632 419.063Z"/>
	<path fill="#890E3B" d="M824.796 419.528C833.125 419.558 895.977 418.86 898.299 420.026C899.815 420.788 900.695 422.212 901.201 423.776C902.373 427.4 902.656 436.732 900.629 440.032C899.846 441.308 898.673 441.519 897.339 441.89C874.814 442.047 851.145 442.753 828.738 441.872C826.431 441.781 823.308 441.826 821.747 439.921C819.583 437.28 820.086 427.668 820.714 424.224C821.143 421.874 822.91 420.688 824.796 419.528Z"/>
	<path fill="#100033" d="M843.77 422.751C851.48 422.691 892.759 421.642 897.208 423.423C898.192 425.04 898.395 426.638 898.503 428.513C898.65 431.055 899.194 435.961 897.495 437.869C892.078 440.106 883.933 439.003 878.108 438.953C861.898 438.985 845.572 439.427 829.375 438.937C827.419 438.878 825.534 439.02 824.142 437.553C823.2 434.555 822.797 426.948 824.233 424.095C827.847 421.495 839.087 422.737 843.77 422.751Z"/>
	<path fill="#890E3B" d="M374.464 463.784C381.044 463.108 387.896 463.478 394.517 463.484L430.668 463.535L557.268 464.092L938.17 463.957L938.197 467.797L375.096 467.587L375.911 466.951L375.769 465.064L376.985 464.341L374.464 463.784Z"/>
	<path fill="#5B4440" d="M94.6635 321.938C93.8834 322.352 93.6132 322.464 92.7001 322.555C92.0753 321.245 92.063 319.956 92.0314 318.535C91.9051 312.866 92.4139 307.143 92.3757 301.45C92.2802 287.232 90.3707 272.703 101.156 261.585C108.568 253.943 117.863 252.913 127.986 252.718C166.404 251.978 204.904 252.53 243.333 252.406L561.181 252.342L713.692 252.339L762.687 252.107C772.46 252.065 782.62 251.558 792.335 252.609C799.162 253.348 806.995 257.677 811.87 262.449C822.759 273.106 823.349 286.124 823.336 300.41Q823.321 309.924 823.45 319.436C822.809 320.592 822.662 321.168 822.708 322.491L823.504 323.508L270.234 323.233L143.893 323.476C133.836 323.491 102.939 322.139 96.1582 324.017C95.683 323.183 95.3312 322.647 94.6635 321.938Z"/>
	<path fill="#53072B" d="M221.391 270.11C224.565 269.98 227.531 270.53 230.289 272.178C233.979 274.384 236.456 278.12 237.323 282.307C238.176 286.42 237.379 290.951 234.986 294.427C232.257 298.393 228.615 299.953 224.042 300.878C220.556 301.038 217.619 300.562 214.635 298.635C211.286 296.471 209.071 292.875 208.266 289.006Q208.095 288.218 208.005 287.416Q207.916 286.615 207.908 285.808Q207.9 285.002 207.974 284.198Q208.048 283.395 208.203 282.604Q208.358 281.812 208.592 281.041Q208.827 280.269 209.139 279.525Q209.451 278.781 209.837 278.073Q210.222 277.365 210.678 276.699C213.293 272.894 216.982 271.038 221.391 270.11Z"/>
	<path fill="#722732" d="M220.713 273.021C222.808 272.877 224.698 272.983 226.676 273.764Q227.268 274 227.833 274.295Q228.397 274.59 228.928 274.942Q229.46 275.294 229.952 275.698Q230.444 276.103 230.892 276.556Q231.34 277.009 231.739 277.506Q232.138 278.002 232.484 278.538Q232.83 279.073 233.119 279.641Q233.408 280.208 233.637 280.803C234.899 284.033 234.922 287.786 233.468 290.956C231.7 294.808 228.863 296.509 224.986 297.837C222.81 297.974 220.947 298.002 218.893 297.181Q218.31 296.95 217.754 296.659Q217.198 296.368 216.674 296.022Q216.151 295.675 215.667 295.277Q215.182 294.878 214.742 294.431Q214.301 293.984 213.909 293.494Q213.517 293.004 213.178 292.477Q212.839 291.949 212.556 291.388Q212.273 290.828 212.05 290.242Q211.814 289.636 211.64 289.009Q211.466 288.382 211.356 287.74Q211.246 287.099 211.2 286.45Q211.155 285.801 211.174 285.151Q211.194 284.5 211.278 283.855Q211.363 283.21 211.512 282.576Q211.66 281.943 211.872 281.328Q212.083 280.712 212.355 280.121C214.099 276.306 216.924 274.461 220.713 273.021Z"/>
	<path fill="#53072B" d="M123.094 274.84C125.827 271.607 129.166 269.599 133.458 269.349C137.66 269.104 142.236 270.403 145.379 273.275C148.587 276.207 150.361 280.467 150.48 284.789Q150.499 285.612 150.436 286.432Q150.373 287.253 150.229 288.063Q150.086 288.874 149.863 289.666Q149.64 290.458 149.34 291.225Q149.04 291.991 148.666 292.724Q148.292 293.457 147.847 294.15Q147.402 294.842 146.891 295.487Q146.38 296.132 145.808 296.724C143.084 299.546 139.427 301.167 135.497 301.181C131.194 301.196 126.748 299.519 123.772 296.376C121.736 294.226 120.522 291.823 119.44 289.097C119.304 287.834 119.13 286.52 119.13 285.246C119.13 281.218 120.328 277.783 123.094 274.84Z"/>
	<path fill="#942215" d="M123.326 291.078C122.731 289.655 122.299 288.309 122.092 286.772Q122.011 286.177 121.989 285.578Q121.967 284.978 122.004 284.379Q122.041 283.78 122.137 283.188Q122.233 282.595 122.387 282.015Q122.541 281.435 122.752 280.873Q122.962 280.311 123.227 279.773Q123.492 279.234 123.809 278.725Q124.126 278.215 124.491 277.739C127.326 274.05 131.145 272.641 135.604 272.064C139.923 273.27 143.644 275.016 145.88 279.163Q146.187 279.736 146.433 280.337Q146.68 280.939 146.864 281.562Q147.049 282.185 147.169 282.824Q147.289 283.463 147.343 284.111Q147.397 284.758 147.386 285.408Q147.374 286.058 147.296 286.703Q147.219 287.349 147.076 287.983Q146.933 288.617 146.726 289.233C145.629 292.506 143.157 295.39 140.026 296.872C137.146 298.235 134.017 298.389 131.024 297.294C127.698 296.078 125.342 293.928 123.326 291.078Z"/>
	<path fill="#53072B" d="M177.76 269.149C180.98 269.096 183.86 269.336 186.808 270.744Q187.531 271.085 188.216 271.498Q188.9 271.911 189.54 272.392Q190.179 272.872 190.766 273.415Q191.353 273.958 191.882 274.557Q192.411 275.157 192.876 275.807Q193.342 276.457 193.739 277.151Q194.136 277.845 194.46 278.576Q194.784 279.307 195.033 280.067C196.379 284.268 195.839 288.754 193.777 292.625C191.377 297.128 187.662 299.68 182.853 301.063C179.287 301.268 176.161 301.024 172.946 299.328Q172.563 299.127 172.191 298.907Q171.819 298.686 171.459 298.447Q171.098 298.207 170.751 297.949Q170.404 297.692 170.07 297.417Q169.736 297.141 169.418 296.849Q169.099 296.557 168.795 296.249Q168.492 295.94 168.205 295.617Q167.918 295.293 167.648 294.956Q167.378 294.618 167.125 294.266Q166.873 293.915 166.64 293.551Q166.406 293.187 166.191 292.811Q165.977 292.436 165.782 292.05Q165.587 291.664 165.412 291.268Q165.237 290.872 165.083 290.468Q164.929 290.064 164.796 289.652Q164.664 289.241 164.552 288.823Q164.352 288.054 164.232 287.269Q164.113 286.483 164.075 285.69Q164.037 284.896 164.082 284.103Q164.126 283.31 164.252 282.526Q164.378 281.741 164.585 280.974Q164.791 280.207 165.076 279.466Q165.361 278.724 165.72 278.016Q166.08 277.307 166.511 276.64C169.102 272.561 173.118 270.166 177.76 269.149Z"/>
	<path fill="#942215" d="M177.202 272.514C179.008 272.415 180.74 272.426 182.502 272.897C186.291 273.91 189.588 276.274 191.402 279.795Q191.693 280.362 191.923 280.957Q192.152 281.551 192.318 282.167Q192.484 282.782 192.584 283.412Q192.684 284.041 192.717 284.678Q192.751 285.314 192.717 285.951Q192.683 286.587 192.583 287.216Q192.482 287.846 192.316 288.461Q192.15 289.077 191.92 289.671C190.348 293.788 187.39 295.947 183.553 297.792C180.673 298.171 177.83 298.178 175.12 297.017Q174.522 296.765 173.952 296.453Q173.383 296.142 172.848 295.775Q172.312 295.407 171.817 294.988Q171.321 294.568 170.871 294.101Q170.42 293.634 170.019 293.124Q169.618 292.613 169.27 292.065Q168.923 291.517 168.632 290.936Q168.341 290.356 168.111 289.749Q167.882 289.144 167.713 288.52Q167.545 287.895 167.44 287.257Q167.335 286.618 167.294 285.973Q167.253 285.327 167.276 284.681Q167.3 284.034 167.388 283.393Q167.475 282.752 167.626 282.123Q167.777 281.494 167.99 280.883Q168.203 280.273 168.476 279.686C170.29 275.875 173.352 273.907 177.202 272.514Z"/>
	<path fill="#890E3B" d="M823.45 319.436C822.809 320.592 822.662 321.168 822.708 322.491L823.504 323.508L270.234 323.233L143.893 323.476C133.836 323.491 102.939 322.139 96.1582 324.017C95.683 323.183 95.3312 322.647 94.6635 321.938C94.715 321.836 94.7427 321.717 94.818 321.632C96.987 319.156 105.081 319.897 108.239 319.898L823.45 319.436Z"/>
	<path fill="#100033" d="M96.1582 324.017C102.939 322.139 133.836 323.491 143.893 323.476L270.234 323.233L823.504 323.508L823.461 393.95C816.179 393.957 808.796 394.228 801.526 393.923C800.208 393.233 799.826 393.513 798.4 393.785C796.302 394.057 794.334 394.024 792.225 393.913C787.508 393.305 782.383 393.714 777.625 393.773Q765.574 393.937 753.522 393.955L659.034 393.897L631.051 393.924C625.32 393.937 619.383 394.23 613.678 393.65L609.431 393.469C608.144 393.622 606.833 393.729 605.557 393.952C600.874 393.876 580.688 395.013 578.089 393.456L575.413 393.656C572.908 393.928 570.432 393.957 567.917 393.977L461.263 393.985C444.109 394.024 426.881 393.723 409.743 394.327Q406.822 394.792 403.915 395.343L400.479 396.149C389.955 398.546 377.823 403.439 371.635 412.847C369.636 415.887 368.831 419.078 368.608 422.673C368.073 431.289 368.514 440.144 368.55 448.793L368.812 504.891L368.456 708.604C368.563 712.377 369.677 723.995 368.165 726.874L368.062 733.475L128.41 733.486C117.966 733.414 109.268 731.113 101.796 723.413Q100.776 722.372 99.8448 721.251Q98.9134 720.13 98.0766 718.937Q97.2399 717.744 96.5034 716.487Q95.7668 715.229 95.1355 713.916Q94.5041 712.602 93.9821 711.242Q93.4601 709.881 93.0509 708.482Q92.6417 707.083 92.3481 705.656Q92.0545 704.229 91.8785 702.782C91.3279 697.952 91.746 692.794 91.8148 687.936Q91.924 677.182 91.9115 666.428L91.9599 586.677L92.2264 328.058C93.4778 326.66 94.8397 325.351 96.1582 324.017Z"/>
	<path fill="#890E3B" d="M400.479 396.149C400.317 391.713 400.226 387.27 400.126 382.832C399.975 376.113 399.559 369.437 404.722 364.286C407.809 361.206 411.224 360.193 415.509 360.19L520.102 360.378L550.561 360.363C555.797 360.364 561.621 359.921 566.79 360.732C569.515 361.16 572.507 362.933 574.392 364.911C580.377 371.196 578.225 385.179 578.089 393.456L575.413 393.656C575.411 386.337 577.492 372.118 572.183 366.742C570.337 364.873 567.526 363.653 564.944 363.311C559.539 362.597 553.574 363.082 548.113 363.075L514.303 363.051C482.21 363.04 449.927 362.266 417.855 363.029C413.693 363.128 409.618 363.166 406.557 366.371C401.807 371.344 403.116 379.323 403.07 385.582C403.051 388.197 402.719 391.211 403.056 393.779C403.16 394.564 403.32 394.896 403.915 395.343L400.479 396.149Z"/>
	<path fill="#890E3B" d="M605.557 393.952C605.636 393.776 605.733 393.607 605.795 393.424C608.819 384.484 600.8 369.213 613.475 361.689C615.955 360.217 619.278 359.689 622.119 359.589C637.37 359.054 652.862 359.692 668.141 359.649L757.814 359.423C764.607 359.416 786.466 358.204 791.705 359.888C795.249 361.027 798.237 364.027 799.827 367.331C803.239 374.418 801.431 386.062 801.526 393.923C800.208 393.233 799.826 393.513 798.4 393.785C798.259 385.525 800.838 372.061 794.995 365.503C792.518 362.722 789.515 362.803 786.038 362.702C775.894 362.408 765.635 362.801 755.482 362.839L697.58 362.897L648.393 362.901C640.009 362.906 631.431 362.549 623.073 363.007C620.282 363.161 615.476 363.272 613.465 365.235C607.153 371.394 609.382 385.19 609.431 393.469C608.144 393.622 606.833 393.729 605.557 393.952Z"/>
	<defs>
		<linearGradient id="gradient_0" gradientUnits="userSpaceOnUse" x1="703.82837" y1="362.14337" x2="703.32745" y2="393.96143">
			<stop offset="0" stop-color="#942215"/>
			<stop offset="1" stop-color="#340024"/>
		</linearGradient>
	</defs>
	<path fill="url(#gradient_0)" d="M609.431 393.469C609.382 385.19 607.153 371.394 613.465 365.235C615.476 363.272 620.282 363.161 623.073 363.007C631.431 362.549 640.009 362.906 648.393 362.901L697.58 362.897L755.482 362.839C765.635 362.801 775.894 362.408 786.038 362.702C789.515 362.803 792.518 362.722 794.995 365.503C800.838 372.061 798.259 385.525 798.4 393.785C796.302 394.057 794.334 394.024 792.225 393.913C792.08 387.685 793.981 375.961 790.545 370.795C789.367 370.158 788.201 370.122 786.901 370.039C777.398 369.435 767.523 369.998 757.977 369.992L698.917 369.933L646.814 369.856C638.205 369.83 629.182 369.217 620.619 369.836C618.706 369.974 617.528 370.097 616.111 371.503C611.942 375.642 613.664 387.938 613.678 393.65L609.431 393.469Z"/>
	<path fill="#5B4440" d="M403.915 395.343C403.32 394.896 403.16 394.564 403.056 393.779C402.719 391.211 403.051 388.197 403.07 385.582C403.116 379.323 401.807 371.344 406.557 366.371C409.618 363.166 413.693 363.128 417.855 363.029C449.927 362.266 482.21 363.04 514.303 363.051L548.113 363.075C553.574 363.082 559.539 362.597 564.944 363.311C567.526 363.653 570.337 364.873 572.183 366.742C577.492 372.118 575.411 386.337 575.413 393.656C572.908 393.928 570.432 393.957 567.917 393.977L567.807 375.031L457.072 374.966C447.647 374.965 418.327 373.876 410.58 375.782C408.192 380.201 409.815 389.267 409.743 394.327Q406.822 394.792 403.915 395.343Z"/>
	<path fill="#942215" d="M409.743 394.327C409.815 389.267 408.192 380.201 410.58 375.782C418.327 373.876 447.647 374.965 457.072 374.966L567.807 375.031L567.917 393.977L461.263 393.985C444.109 394.024 426.881 393.723 409.743 394.327Z"/>
	<path fill="#942215" d="M613.678 393.65C613.664 387.938 611.942 375.642 616.111 371.503C617.528 370.097 618.706 369.974 620.619 369.836C629.182 369.217 638.205 369.83 646.814 369.856L698.917 369.933L757.977 369.992C767.523 369.998 777.398 369.435 786.901 370.039C788.201 370.122 789.367 370.158 790.545 370.795C793.981 375.961 792.08 387.685 792.225 393.913C787.508 393.305 782.383 393.714 777.625 393.773Q765.574 393.937 753.522 393.955L659.034 393.897L631.051 393.924C625.32 393.937 619.383 394.23 613.678 393.65Z"/>
	<path fill="#890E3B" d="M368.156 712.024L199.367 711.999L145.083 711.949C137.426 711.936 129.401 712.494 121.791 712.041C119.537 711.907 117.91 711.61 116.124 710.196C114.127 700.175 115.33 680.522 115.359 669.308L115.93 573.768L116.004 435.461L115.95 396.555C115.94 389.499 115.243 381.613 116.538 374.657C117.265 370.753 119.076 367.891 122.467 365.734C125.228 363.978 128.504 363.323 131.732 363.169C146.69 362.459 162.122 363.415 177.131 363.482L266.949 363.517L322.863 363.171C333.458 363.116 345.472 361.831 355.782 364.165C358.678 364.821 360.7 367.292 362.142 369.764C363.706 372.447 363.921 375.431 364.012 378.471C364.623 399.028 363.602 419.749 363.527 440.324L363.598 554.267L363.566 595.674C363.57 602.161 364.599 613.942 362.963 619.678C361.96 623.192 359.771 626.628 356.447 628.33C354.434 629.361 352.214 629.674 349.98 629.769C339.7 630.208 329.243 629.76 318.945 629.716L259.348 629.611L181.439 629.569C166.69 629.565 151.794 629.999 137.059 629.422C134.882 629.336 133.023 628.983 130.955 628.295C130.754 628.228 130.555 628.157 130.355 628.088C128.5 626.259 127.074 624.168 126.068 621.773C126.363 606.934 126.152 592.041 126.232 577.194L126.433 449.889L126.396 404.785C126.361 396.561 125.796 387.95 126.447 379.764C126.58 378.106 127.147 376.935 128.034 375.552Q127.062 460.049 127.932 544.547L127.922 594.787C127.916 602.348 127.064 610.964 128.135 618.368C129.253 621.088 130.241 624.545 133.075 625.927C134.763 626.749 137.551 626.61 139.431 626.634C178.725 627.136 218.118 626.587 257.426 626.687C288.228 626.765 319.186 627.657 349.97 626.992C351.271 626.964 352.62 626.945 353.831 626.415C356.634 625.189 359.244 622.622 360.28 619.728C362.099 614.648 360.629 532.095 360.622 520.611L360.627 447.783C360.779 424.29 361.244 400.605 360.748 377.124C360.707 375.145 360.336 373.094 359.416 371.325C358.307 369.191 356.445 367.839 354.452 366.589C339.252 365.774 323.773 366.44 308.548 366.51L229.503 366.668L163.675 366.469C152.579 366.415 140.959 365.631 129.918 366.425C127.018 366.633 124.382 367.367 122.211 369.388C118.366 372.967 118.83 377.192 118.806 382.027L118.994 551.52L118.834 604.549C118.701 616.58 118.109 628.764 118.618 640.774C118.571 663.333 117.812 686.253 118.76 708.778C141.194 709.323 163.757 708.495 186.213 708.507L368.456 708.604C368.563 712.377 369.677 723.995 368.165 726.874C367.912 721.984 368.149 716.928 368.156 712.024Z"/>
	<path fill="#5B4440" d="M118.618 640.774C118.109 628.764 118.701 616.58 118.834 604.549L118.994 551.52L118.806 382.027C118.83 377.192 118.366 372.967 122.211 369.388C124.382 367.367 127.018 366.633 129.918 366.425C140.959 365.631 152.579 366.415 163.675 366.469L229.503 366.668L308.548 366.51C323.773 366.44 339.252 365.774 354.452 366.589C356.445 367.839 358.307 369.191 359.416 371.325C360.336 373.094 360.707 375.145 360.748 377.124C361.244 400.605 360.779 424.29 360.627 447.783L360.622 520.611C360.629 532.095 362.099 614.648 360.28 619.728C359.244 622.622 356.634 625.189 353.831 626.415C352.62 626.945 351.271 626.964 349.97 626.992C319.186 627.657 288.228 626.765 257.426 626.687C218.118 626.587 178.725 627.136 139.431 626.634C137.551 626.61 134.763 626.749 133.075 625.927C130.241 624.545 129.253 621.088 128.135 618.368C143.878 618.066 159.68 618.365 175.429 618.398Q208.016 618.369 240.602 618.683L240.636 564.985C240.663 554.988 240.442 544.915 240.887 534.928C241.403 544.664 241.056 554.517 241.037 564.272L240.997 618.99C243.245 618.967 245.779 619.176 247.97 618.683C258.286 617.586 269.541 618.414 279.944 618.399Q317.068 618.56 354.191 618.342C355.126 608.504 354.399 597.955 354.413 588.049Q354.348 555.344 354.663 522.643C355.194 521.169 355.361 518.595 354.702 517.178C354.343 516.407 353.726 516.39 352.985 516.082C352.299 505.97 352.674 495.782 352.81 485.655C352.918 477.636 352.644 469.261 353.768 461.32C354.731 459.407 354.48 457.061 354.473 454.975C354.187 437.978 354.437 420.934 354.429 403.932C354.425 396.395 354.788 388.687 354.272 381.179C354.189 379.966 354.115 378.022 353.241 377.094C352.154 375.942 351.071 375.771 349.572 375.649C341.899 375.024 333.836 375.524 326.128 375.522L278.686 375.517L128.034 375.552C127.147 376.935 126.58 378.106 126.447 379.764C125.796 387.95 126.361 396.561 126.396 404.785L126.433 449.889L126.232 577.194C126.152 592.041 126.363 606.934 126.068 621.773C123.825 620.375 121.687 620.12 119.102 619.894C119.098 625.97 119.984 635.074 118.618 640.774Z"/>
	<path fill="#942215" d="M240.903 454.924C278.727 454.409 316.643 454.883 354.473 454.975C354.48 457.061 354.731 459.407 353.768 461.32C352.644 469.261 352.918 477.636 352.81 485.655C352.674 495.782 352.299 505.97 352.985 516.082C353.726 516.39 354.343 516.407 354.702 517.178C355.361 518.595 355.194 521.169 354.663 522.643Q354.348 555.346 354.413 588.049C354.399 597.955 355.126 608.504 354.191 618.342Q317.068 618.56 279.944 618.399C269.541 618.414 258.286 617.586 247.97 618.683C245.779 619.176 243.245 618.967 240.997 618.99L241.037 564.272C241.056 554.517 241.403 544.664 240.887 534.928L240.903 454.924Z"/>
	<path fill="#C789C7" d="M240.903 454.924C278.727 454.409 316.643 454.883 354.473 454.975C354.48 457.061 354.731 459.407 353.768 461.32C352.644 469.261 352.918 477.636 352.81 485.655C352.674 495.782 352.299 505.97 352.985 516.082C353.726 516.39 354.343 516.407 354.702 517.178C355.361 518.595 355.194 521.169 354.663 522.643Q301.342 522.323 248.021 522.539L247.97 618.683C245.779 619.176 243.245 618.967 240.997 618.99L241.037 564.272C241.056 554.517 241.403 544.664 240.887 534.928L240.903 454.924Z"/>
	<path fill="#100033" d="M240.903 454.924C278.727 454.409 316.643 454.883 354.473 454.975C354.48 457.061 354.731 459.407 353.768 461.32C318.367 461.129 282.908 461.977 247.517 461.395L247.724 516.397Q300.355 516.524 352.985 516.082C353.726 516.39 354.343 516.407 354.702 517.178C355.361 518.595 355.194 521.169 354.663 522.643Q301.342 522.323 248.021 522.539L247.97 618.683C245.779 619.176 243.245 618.967 240.997 618.99L241.037 564.272C241.056 554.517 241.403 544.664 240.887 534.928L240.903 454.924Z"/>
	<path fill="#942215" d="M128.034 375.552L278.686 375.517L326.128 375.522C333.836 375.524 341.899 375.024 349.572 375.649C351.071 375.771 352.154 375.942 353.241 377.094C354.115 378.022 354.189 379.966 354.272 381.179C354.788 388.687 354.425 396.395 354.429 403.932C354.437 420.934 354.187 437.978 354.473 454.975C316.643 454.883 278.727 454.409 240.903 454.924L240.887 534.928C240.442 544.915 240.663 554.988 240.636 564.985L240.602 618.683Q208.016 618.369 175.429 618.398C159.68 618.365 143.878 618.066 128.135 618.368C127.064 610.964 127.916 602.348 127.922 594.787L127.932 544.547Q127.062 460.049 128.034 375.552Z"/>
	<path fill="#100033" d="M144.101 447.201Q173.42 447.094 202.738 447.305C209.288 447.304 223.5 445.938 229.002 447.602C230.545 448.069 231.57 448.77 232.378 450.197C232.63 451.806 232.371 452.474 231.786 453.933C230.631 455.094 229.899 455.317 228.376 455.753C211.284 456.56 193.908 455.984 176.793 455.985C167.403 455.985 154.467 456.907 145.414 455.716C143.318 455.44 141.912 455.065 140.533 453.338C140.238 451.921 140.116 451.098 140.776 449.751C141.472 448.329 142.724 447.787 144.101 447.201Z"/>
	<path fill="#100033" d="M142.267 430.56C179.184 429.858 216.24 430.453 253.171 430.469C281.255 430.481 309.539 429.713 337.597 430.495C339.487 430.548 341.461 430.605 343.153 431.519C343.814 432.577 344.004 432.919 343.998 434.216C343.99 435.979 343.283 436.788 342.07 437.97C299.179 438.676 256.159 438.134 213.259 437.914L167.82 437.784C160.259 437.767 152.54 438.071 144.994 437.665C143.841 437.603 142.467 437.512 141.477 436.84C140.573 436.226 140.153 435.393 140.163 434.305C140.176 432.78 141.329 431.629 142.267 430.56Z"/>
	<path fill="#100033" d="M141.422 413.51C151.066 412.974 160.923 413.402 170.59 413.438L221.78 413.511L301.47 413.532C313.793 413.534 326.205 413.17 338.514 413.47C339.971 413.506 342.182 413.515 343.444 414.366C344.04 414.769 344.546 415.353 344.677 416.067C345.019 417.923 344.186 419.417 343.258 420.95C328.433 421.299 313.54 420.999 298.708 421L228.181 421.111L174.613 421.023C165.129 421.01 155.516 421.313 146.044 420.926C144.733 420.873 143.26 420.857 142.08 420.196C140.989 419.586 140.314 418.787 140.077 417.54C139.792 416.038 140.683 414.721 141.422 413.51Z"/>
	<path fill="#100033" d="M375.096 467.587L938.197 467.797Q938.849 579.153 938.221 690.509L938.619 748.803C938.841 764.223 939.457 780.416 938.295 795.795C940.353 793.198 942.877 789.959 944.251 786.986C950.057 779.163 954.652 770.008 959.351 761.472Q964.668 751.695 969.568 741.702Q974.467 731.708 978.94 721.517Q983.412 711.326 987.45 700.954Q991.488 690.583 995.084 680.05Q998.679 669.517 1001.83 658.842Q1004.97 648.167 1007.67 637.368Q1010.36 626.569 1012.59 615.666Q1014.83 604.763 1016.6 593.775Q1020.17 571.654 1022.21 549.339C1022.93 540.884 1022.55 532.112 1023.91 523.745C1023.94 523.571 1023.97 523.398 1024 523.224L1024 1024L529.293 1024C532.882 1023.26 536.867 1023.28 540.543 1022.98C564.663 1021.06 589.275 1018.58 612.987 1013.77Q618.166 1012.73 623.322 1011.58Q628.478 1010.43 633.609 1009.18Q638.74 1007.92 643.845 1006.56Q648.949 1005.2 654.024 1003.74Q659.1 1002.27 664.144 1000.7Q669.188 999.133 674.198 997.46Q679.209 995.787 684.184 994.012Q689.159 992.236 694.096 990.358Q699.034 988.48 703.931 986.5Q708.829 984.521 713.685 982.441Q718.54 980.362 723.352 978.182Q728.164 976.003 732.93 973.724Q737.696 971.446 742.414 969.07Q747.132 966.695 751.8 964.222Q756.468 961.749 761.084 959.181Q765.7 956.613 770.262 953.95Q774.825 951.287 779.331 948.531Q783.837 945.774 788.286 942.926Q792.734 940.077 797.123 937.137Q801.512 934.198 805.839 931.168Q810.167 928.138 814.431 925.02Q818.695 921.902 822.894 918.697Q827.093 915.492 831.225 912.201Q835.357 908.909 839.42 905.534Q843.483 902.158 847.476 898.7Q851.469 895.241 855.389 891.701Q859.31 888.161 863.157 884.54Q867.003 880.92 870.775 877.221Q874.546 873.523 878.241 869.747Q881.935 865.971 885.551 862.12Q889.167 858.269 892.702 854.345Q896.238 850.42 899.692 846.423L905.149 840.339C893.489 840.805 881.729 840.567 870.057 840.585L810.696 840.651L632.093 840.629L483.167 840.529L436.377 840.568C427.611 840.582 418.726 840.876 409.972 840.491C404.724 840.259 399.923 839.266 395.182 836.944Q394.334 836.535 393.507 836.085Q392.681 835.635 391.877 835.143Q391.074 834.652 390.296 834.122Q389.519 833.592 388.768 833.023Q388.018 832.454 387.297 831.849Q386.576 831.244 385.886 830.604Q385.196 829.963 384.538 829.289Q383.881 828.615 383.258 827.909Q382.635 827.203 382.048 826.467Q381.461 825.731 380.912 824.967Q380.362 824.203 379.852 823.412Q379.341 822.621 378.87 821.806Q378.399 820.99 377.97 820.153Q377.54 819.315 377.153 818.457Q376.766 817.599 376.422 816.723Q376.078 815.846 375.778 814.954C372.723 805.577 374.526 771.812 374.447 759.362L374.473 565.685C374.472 555.605 373.504 470.711 375.096 467.587Z"/>
	<path fill="#890E3B" d="M413.75 508.012C414.984 507.028 416.861 506.164 418.442 505.991C423.719 505.412 429.54 505.913 434.865 505.934L469.177 506.034L575.283 506.09C580.832 505.99 618.482 505.094 621.147 506.503L621.496 507.547L621.144 507.548C614.558 509.083 592.004 508.009 583.906 508.022L469.151 508.404L436.087 508.373C430.482 508.364 424.328 507.84 418.779 508.625C417.102 508.863 415.604 510.347 414.38 511.441C414.401 510.04 414.473 509.265 413.75 508.012Z"/>
	<defs>
		<linearGradient id="gradient_1" gradientUnits="userSpaceOnUse" x1="377.47845" y1="607.5318" x2="542.82666" y2="665.29071">
			<stop offset="0" stop-color="#65093B"/>
			<stop offset="1" stop-color="#A31E5C"/>
		</linearGradient>
	</defs>
	<path fill="url(#gradient_1)" d="M560.881 734.861C554.559 735.243 548.055 734.919 541.707 734.923L502.727 734.903C477.293 734.875 451.64 735.669 426.232 734.902C422.046 734.776 416.561 734.454 413.624 731.212C411.168 728.501 409.835 725.889 409.462 722.242C408.384 711.692 409.297 700.454 409.342 689.835L409.396 630.168L409.512 557.68C409.464 543.724 408.547 529.282 409.529 515.383C409.773 511.941 411.192 510.211 413.75 508.012C414.473 509.265 414.401 510.04 414.38 511.441C410.82 518.594 412.625 535.447 412.441 544.035L412.45 660.921C412.431 680.418 411.619 700.247 412.368 719.705C412.425 721.176 412.497 722.328 413.084 723.679C414.275 726.518 415.726 729.594 418.73 730.89C423.542 732.966 448.187 731.597 455.448 731.598L533.901 731.606C546.484 731.619 559.327 731.056 571.873 731.669C568.779 733.535 516.003 731.432 506.101 732.351C510.273 733.062 514.607 732.559 518.873 733.145C514.307 734.139 509.038 733.822 504.34 734.066L504.281 734.215C511.21 734.277 558.943 733.772 560.881 734.861Z"/>
	<path fill="#53072B" d="M891.977 507.535C895.987 507.698 900.514 508.25 903.343 511.46C904.51 512.783 905.083 514.112 905.209 515.878C906.224 530.171 905.478 544.914 905.487 559.277L905.55 639.491L905.518 694.977C905.517 703.779 906.286 713.362 905.375 722.092C904.963 726.036 903.33 729.943 900.109 732.377C898.842 733.334 897.438 733.873 895.952 734.39L895.453 733.922C895.303 732.912 895.121 732.271 894.613 731.384C895.465 730.712 896.344 730.034 897.112 729.264C898.731 727.64 899.161 725.466 899.361 723.265C899.83 718.083 899.528 712.67 899.502 707.459L899.471 681.987L899.523 591.305C899.92 581.753 900.279 517.538 898.774 513.017C897.842 510.217 894.38 508.835 891.977 507.535Z"/>
	<path fill="#5B4440" d="M604.801 593.762C606.903 593.668 609.023 593.747 611.126 593.771C611.6 604.239 611.33 614.786 611.307 625.266C585.651 626.059 559.789 625.419 534.113 625.449C532.328 625.436 530.533 625.302 528.749 625.218C528.503 614.881 528.836 604.482 528.977 594.142C554.159 593.161 579.577 594.095 604.801 593.762Z"/>
	<path fill="#5B4440" d="M801.576 594.693C812.286 594.255 823.145 594.601 833.871 594.596L892.754 594.494C892.917 604.283 893.458 615.031 892.376 624.727C880.078 625.285 867.624 624.686 855.308 624.599L800.919 624.531C801.01 618.055 799.732 599.753 801.576 594.693Z"/>
	<path fill="#890E3B" d="M399.556 504.932C401.693 501.815 404.326 497.817 408.333 497.04C415.042 495.74 423.255 496.609 430.159 496.613L474.189 496.627L568.048 496.587C583.891 496.586 600.023 495.945 615.837 496.662C619.054 496.808 622.181 497.385 624.851 499.286C628.31 501.749 629.062 504.228 629.632 508.38C630.834 517.132 630.056 526.854 630.076 535.704L630.11 590.77Q630.554 634.881 630.111 678.992C630.077 692.622 630.751 706.67 629.93 720.252C629.772 722.868 629.334 727.64 627.622 729.692C624.579 733.341 620.39 734.566 615.822 734.773C608.005 735.127 600.075 734.882 592.246 734.888C581.802 734.897 571.321 735.085 560.881 734.861C558.943 733.772 511.21 734.277 504.281 734.215L504.34 734.066C509.038 733.822 514.307 734.139 518.873 733.145C514.607 732.559 510.273 733.062 506.101 732.351C516.003 731.432 568.779 733.535 571.873 731.669Q586.759 731.564 601.644 731.668C606.879 731.675 612.836 732.248 617.927 731.149C620.372 730.62 623.645 729.389 624.945 727.077C626.323 724.628 626.772 720.666 626.868 717.885C627.321 704.896 626.942 691.755 626.942 678.753L626.878 605.854L626.819 546.261C626.847 535.325 627.183 524.293 626.862 513.366C626.797 511.147 626.854 508.356 626.075 506.28C625.413 504.517 623.207 501.354 621.361 500.782C614.597 498.688 551.517 499.928 538.97 499.942L457.144 500.037C442.356 500.042 427.468 499.688 412.69 500.121C410.789 500.177 409.015 500.309 407.33 501.274C405.313 502.429 404.001 504.34 403.487 506.594C402.141 512.511 402.902 519.778 402.912 525.876L402.98 559.296L402.968 694.75L402.774 781.77C402.764 786.711 401.932 808.944 403.052 812.397C403.178 812.785 403.502 813.078 403.727 813.419C405.435 814.326 408.126 814.149 410.048 814.176C431.712 814.472 453.411 814.11 475.081 814.156L664.907 814.198L835.766 814.228C861.165 814.182 886.62 814.693 912.008 814.162L912.387 599.485L912.18 540.58C912.162 531.027 912.7 521.248 912.194 511.723C912.063 509.27 912 507.017 910.358 505.049C908.074 502.311 904.404 501.366 900.991 501.08C890.414 500.194 879.17 500.976 868.513 500.979L800.25 500.998L729.547 500.906C717.039 500.881 703.974 500.122 691.523 501.091C688.627 501.316 686.017 502.37 683.874 504.37C679.969 508.013 679.434 512.155 679.369 517.216C678.805 561.113 679.22 605.103 679.2 649.011L679.138 694.3C679.106 702.559 678.646 711.025 679.189 719.251C679.393 722.352 679.682 726.131 682.017 728.397C682.177 728.551 682.345 728.696 682.507 728.848C682.665 728.996 682.815 729.152 682.976 729.297C685.126 731.228 688.749 731.329 691.533 731.49C701.202 732.049 711.194 731.511 720.896 731.494L779.291 731.452L853.474 731.567C867.144 731.581 880.959 731.978 894.613 731.384C895.121 732.271 895.303 732.912 895.453 733.922L895.952 734.39C886.571 735.663 876.152 734.764 866.639 734.757L806.787 734.704L724.101 734.852C712.625 734.829 700.531 735.677 689.125 734.804C685.863 734.555 682.704 733.526 680.129 731.436C677.135 729.007 676.165 723.885 675.946 720.257C675.13 706.733 675.962 692.715 676.009 679.141L676.007 603.545L676.08 541.452C676.112 532.219 675.259 522.382 676.257 513.225C676.722 508.957 677.889 505.532 680.865 502.329C685.229 497.631 691.591 497.708 697.59 497.637C744.585 497.081 791.643 497.543 838.645 497.488Q861.18 497.399 883.715 497.542C889.665 497.579 896.256 496.861 902.133 497.7C906.223 498.284 909.67 499.949 912.581 502.891C915.11 505.448 915.223 509.055 915.414 512.477C916.221 526.966 915.446 541.938 915.447 556.476L915.52 640.772L915.465 750.611C915.462 769.992 915.97 789.528 915.352 808.893C915.271 811.428 915.146 813.916 914.579 816.396C911.774 817.893 906.984 817.561 903.861 817.584L562.715 817.593L457.457 817.477L423.556 817.519C416.753 817.529 409.785 817.886 403.017 817.177C401.339 816.138 400.235 815.308 399.645 813.344C398.235 808.646 399.218 768.062 399.239 758.378L399.385 610.85L399.34 539.716C399.318 528.545 398.215 515.956 399.556 504.932Z"/>
	<path fill="#942215" d="M800.524 632.131L893.614 632.425L893.501 724.944Q847.251 724.867 801.003 725.254L801.027 663.717C801.03 653.417 801.938 642.294 800.524 632.131Z"/>
	<path fill="#942215" d="M684.037 724.99C683.526 682.475 684.183 639.899 684.167 597.38L684.131 545.097C684.126 535.413 683.782 525.582 684.294 515.912C684.41 513.713 684.742 511.634 685.964 509.757C686.259 509.303 686.734 508.513 687.172 508.183C688.829 506.932 693.543 507.084 695.632 507.04C723.522 506.449 751.54 507.347 779.441 507.51L891.977 507.535C894.38 508.835 897.842 510.217 898.774 513.017C900.279 517.538 899.92 581.753 899.523 591.305L895.3 587.98C883.334 586.822 866.683 587.785 854.286 587.816C837.842 587.856 820.926 587.02 804.535 588.012C801.5 588.195 798.077 588.552 795.324 589.879C794.056 592.348 793.748 595.668 793.563 598.425C792.61 612.598 793.408 627.428 793.429 641.666L793.48 725.56L684.037 724.99Z"/>
	<path fill="#372507" d="M828.807 556.936L879.038 556.66C868.469 558.254 857.863 557.107 847.233 557.589C840.738 557.883 832.953 559.452 826.662 561C832.556 560.716 838.259 562.212 844.096 562.758C837.833 563.852 831.679 563.01 825.374 562.782C816.147 562.45 802.08 562.127 793.044 563.002L793.179 556.952L828.807 556.936Z"/>
	<path fill="#B26500" d="M793.179 556.952L828.807 556.936C819.314 562.368 801.686 559.159 793.044 563.002L793.179 556.952Z"/>
	<path fill="#100033" d="M699.848 579.708L762.117 579.481C771.392 579.452 782.113 578.567 791.207 579.552C792.267 579.667 793.392 580.179 794.075 581.021C794.64 581.718 794.765 582.366 794.734 583.222C794.659 585.305 793.446 586.421 791.987 587.696C771.869 588.149 751.673 587.694 731.546 587.7C722.57 587.702 708.449 588.708 700.023 587.448C698.817 587.268 697.841 586.741 697.243 585.627C696.696 584.608 696.835 583.049 697.279 582.024C697.83 580.752 698.625 580.214 699.848 579.708Z"/>
	<path fill="#100033" d="M793.179 556.952L730.309 556.714C720.877 556.681 710.846 557.442 701.491 556.634C699.559 556.467 698.134 556.166 696.481 555.148C696.015 554.27 695.624 553.894 696.07 552.888C696.697 551.472 697.935 550.286 699.392 549.781C702.272 548.781 741.139 549.47 747.042 549.451L837.097 549.126C851.625 549.113 866.243 548.793 880.761 549.229C882.699 549.287 885.88 549.255 887.456 550.533C888.479 551.362 888.594 551.639 888.72 552.855C888.411 553.552 888.122 554.155 887.557 554.688C885.02 557.083 882.266 556.695 879.038 556.66L828.807 556.936L793.179 556.952Z"/>
	<path fill="#100033" d="M699.496 564.499C712.697 564.152 725.993 564.417 739.2 564.424L813.236 564.505L859.084 564.615C867.095 564.647 875.427 564.206 883.389 564.904C884.856 565.033 886.274 565.245 887.36 566.35C888.337 567.343 888.291 567.955 888.341 569.243C887.731 570.807 887.204 571.118 885.847 571.974C872.878 572.424 859.784 572.084 846.802 572.111Q810.398 572.329 773.993 572.17L726.447 572.119C718.352 572.131 710.028 572.591 701.962 572.115C700.482 572.028 699.463 571.814 698.127 571.17C697.28 570.14 696.849 569.763 696.985 568.327C697.134 566.747 698.457 565.57 699.496 564.499Z"/>
	<path fill="#942215" d="M621.496 507.547C623.056 512.71 622.018 524.76 622.011 530.614L621.932 581.25L621.872 632.343C621.856 641.229 622.248 650.388 621.639 659.244C622.098 681.149 622.095 703.375 621.517 725.275C589.696 726.22 557.742 724.795 525.899 725.327L525.91 632.096L588.332 631.994C593.66 631.981 599.019 631.84 604.345 631.942C607 631.993 609.723 632.449 612.37 632.294C613.621 632.221 614.974 631.886 615.958 631.073C617.702 629.631 617.737 627.149 617.71 625.089C617.611 617.574 619.11 593.56 615.396 588.281C613.413 587.394 610.21 587.462 608.035 587.392C598.928 587.1 528.158 586.631 524.433 588.049C522.831 588.659 520.588 590.441 520.073 592.108C518.863 596.024 519.844 628.218 519.856 634.723L519.557 725.188L451.347 725.131C442.955 725.123 421.931 726.227 414.895 724.188C414.292 724.013 413.686 723.855 413.084 723.679C412.497 722.328 412.425 721.176 412.368 719.705C411.619 700.247 412.431 680.418 412.45 660.921L412.441 544.035C412.625 535.447 410.82 518.594 414.38 511.441C415.604 510.347 417.102 508.863 418.779 508.625C424.328 507.84 430.482 508.364 436.087 508.373L469.151 508.404L583.906 508.022C592.004 508.009 614.558 509.083 621.144 507.548L621.496 507.547Z"/>
	<path fill="#100033" d="M430.982 579.21C442.025 578.822 517.527 578.084 521.146 579.843C522.5 580.502 522.865 581.159 523.267 582.495C522.986 583.82 522.574 584.585 521.66 585.557C520.021 587.3 518.528 587.204 516.258 587.289L458 587.223C448.188 587.231 438.256 587.673 428.461 587.295C427.261 587.249 425.83 587.166 424.792 586.481C423.711 585.768 423.666 585.223 423.498 584.069C423.835 583.007 424.143 582.218 424.883 581.363C426.684 579.281 428.376 579.367 430.982 579.21Z"/>
	<path fill="#100033" d="M425.919 550.588C435.194 550.144 444.621 550.491 453.917 550.491L508.894 550.538L564.621 550.635C574.987 550.604 585.504 550.146 595.856 550.522C597.648 550.587 600.357 550.846 601.904 551.827C603.183 552.637 603.262 553.05 603.71 554.412C603.406 556.123 602.729 556.774 601.557 557.944C593.984 558.56 586.146 558.207 578.54 558.242L536.47 558.406L469.395 558.329C456.342 558.342 443.21 558.733 430.167 558.413C428.373 558.369 426.471 558.375 424.863 557.501C424.021 556.441 423.665 556.128 423.68 554.703C423.697 553.062 424.887 551.724 425.919 550.588Z"/>
	<path fill="#100033" d="M459.333 564.248L570.639 563.84C575.676 563.836 597.109 563.004 600.01 563.901C601.634 564.403 603.402 565.639 604.03 567.285C604.511 568.546 604.27 569.054 603.727 570.149C599.99 573.393 574.917 571.76 569.125 571.736L463.19 571.903L437.015 571.915C433.759 571.914 429.488 572.413 426.368 571.767C425.046 571.494 423.85 570.537 423.26 569.295C422.64 567.987 422.744 567.737 423.236 566.485C424.648 565.35 425.798 564.905 427.59 564.6C432.231 563.811 437.336 564.331 442.033 564.38Q450.684 564.392 459.333 564.248Z"/>
	<path fill="#2C0709" d="M0 0L495.565 0L529.423 0L1024 0L1024 494.109L1024 523.224C1023.97 523.398 1023.94 523.571 1023.91 523.745C1022.55 532.112 1022.93 540.884 1022.21 549.339Q1020.17 571.654 1016.6 593.775Q1014.83 604.763 1012.59 615.666Q1010.36 626.569 1007.67 637.368Q1004.97 648.167 1001.83 658.842Q998.679 669.517 995.084 680.05Q991.488 690.583 987.45 700.954Q983.412 711.326 978.94 721.517Q974.467 731.708 969.568 741.702Q964.668 751.695 959.351 761.472C954.652 770.008 950.057 779.163 944.251 786.986C944.988 777.161 944.771 767.16 944.8 757.308L944.746 708.481L944.658 565.301L944.928 468.87L945.007 442.514C945.032 436.389 945.323 430.114 944.648 424.022C943.87 417.006 940.55 410.645 935.992 405.33C929.678 397.969 921.04 393.741 911.388 393.124C900.46 392.425 889.118 393.207 878.151 393.367Q854.199 393.576 830.247 393.498L830.371 324.34C830.383 310.915 831.895 290.141 828.692 277.555C826.856 270.337 822.356 263.544 817.181 258.277C808.795 249.742 799.211 245.971 787.33 245.956C772.384 245.938 757.443 246.51 742.497 246.266C742.561 227.103 745.652 205.403 730.836 190.517C725.047 184.702 715.328 178.979 707.175 177.805C701.319 176.962 694.911 177.395 688.992 177.403L657.912 177.467L553.308 177.431L187.998 177.628C176.433 177.673 166.434 180.363 158.045 188.746C147.411 199.372 146.941 210.345 146.984 224.585L147.095 246.438C129.595 246.489 110.051 243.688 96.4667 257.275C90.8728 262.87 86.6835 271.97 85.7691 279.814C85.1974 284.718 85.5244 290.021 85.522 294.964L85.5163 321.45L85.3818 408.211L85.3239 698.522C85.4272 709.838 89.0437 720.691 97.2335 728.792C102.777 734.276 110.07 738.233 117.775 739.582C126.179 741.054 135.169 740.517 143.687 740.532L183.492 740.615L368.028 740.423L367.965 782.895C367.956 793.392 366.792 805.144 369.295 815.366Q369.64 816.732 370.075 818.073Q370.509 819.413 371.031 820.722Q371.553 822.031 372.16 823.303Q372.767 824.575 373.456 825.804Q374.146 827.033 374.914 828.214Q375.683 829.395 376.528 830.523Q377.373 831.651 378.291 832.72Q379.208 833.79 380.194 834.797C391.878 846.649 402.75 846.809 418.342 846.806L731.948 846.831L833.031 846.74C855.159 846.771 877.589 847.394 899.692 846.423Q896.238 850.42 892.702 854.344Q889.167 858.269 885.551 862.12Q881.935 865.971 878.241 869.747Q874.546 873.523 870.775 877.221Q867.003 880.92 863.157 884.54Q859.31 888.161 855.389 891.701Q851.469 895.241 847.476 898.7Q843.483 902.158 839.42 905.534Q835.357 908.909 831.225 912.201Q827.093 915.492 822.894 918.697Q818.695 921.902 814.431 925.02Q810.167 928.138 805.839 931.168Q801.512 934.198 797.123 937.137Q792.734 940.077 788.286 942.926Q783.837 945.774 779.331 948.531Q774.825 951.287 770.262 953.95Q765.7 956.613 761.084 959.181Q756.468 961.749 751.8 964.222Q747.132 966.695 742.414 969.07Q737.696 971.446 732.93 973.724Q728.164 976.003 723.352 978.182Q718.54 980.362 713.685 982.441Q708.829 984.521 703.931 986.501Q699.034 988.48 694.096 990.358Q689.159 992.236 684.184 994.012Q679.209 995.787 674.198 997.46Q669.188 999.133 664.144 1000.7Q659.1 1002.27 654.024 1003.74Q648.949 1005.2 643.845 1006.56Q638.741 1007.92 633.609 1009.18Q628.478 1010.43 623.322 1011.58Q618.166 1012.73 612.987 1013.77C589.275 1018.58 564.663 1021.06 540.543 1022.98C536.867 1023.28 532.882 1023.26 529.293 1024L501.063 1024L0 1024L0 533.285L0 492.546L0 0Z"/>
	<path fill="#5B4440" d="M495.565 0L529.423 0C531.161 0.299027 532.948 0.529775 534.661 0.946041C529.023 1.22991 523.19 0.815933 517.538 0.743901C508.312 0.62633 499.141 0.738977 489.92 0.956422C491.705 0.398384 493.714 0.262549 495.565 0Z"/>
	<path fill="#100033" d="M529.423 0L1024 0L1024 494.109C1022.16 485.743 1022.49 474.095 1021.67 465.244Q1019.35 438.436 1014.3 412.005C1002.04 345.953 973.505 276.611 935.243 221.325Q922.691 203.491 908.817 186.664Q894.944 169.837 879.83 154.115C861.495 134.665 840.777 117.729 819.263 101.965C750.033 51.2375 679.833 21.2003 595.07 7.46533C575.105 4.23017 554.895 1.57894 534.661 0.946041C532.948 0.529775 531.161 0.299027 529.423 0Z"/>
	<path fill="#100033" d="M0 0L495.565 0C493.714 0.262549 491.705 0.398384 489.92 0.956422Q483.573 1.21457 477.235 1.62986Q470.897 2.04516 464.571 2.61733Q458.244 3.18951 451.934 3.91822Q445.624 4.64694 439.334 5.53174Q433.044 6.41654 426.778 7.45688Q420.512 8.49723 414.274 9.69248Q408.035 10.8877 401.828 12.2372Q395.621 13.5866 389.45 15.0893Q383.278 16.5921 377.146 18.2473Q371.013 19.9025 364.923 21.7091Q358.834 23.5157 352.791 25.4726Q346.748 27.4295 340.755 29.5355Q334.763 31.6414 328.824 33.8952Q322.885 36.149 317.004 38.5492Q311.123 40.9495 305.304 43.4946Q299.484 46.0398 293.729 48.7283Q287.974 51.4169 282.288 54.2472Q276.601 57.0774 270.986 60.0477Q265.372 63.018 259.832 66.1264Q254.293 69.2349 248.832 72.4796Q243.372 75.7243 237.993 79.1033Q232.614 82.4823 227.321 85.9935Q222.028 89.5047 216.823 93.146Q211.619 96.7872 206.506 100.556Q201.393 104.325 196.375 108.22Q191.357 112.114 186.437 116.132Q181.517 120.15 176.698 124.288Q171.879 128.426 167.165 132.683Q162.45 136.939 157.842 141.311Q153.234 145.683 148.736 150.168Q144.237 154.652 139.851 159.247Q135.466 163.842 131.195 168.544C63.9348 242.565 24.2024 328.333 6.6528 426.395C4.1537 440.359 2.76043 454.347 1.78534 468.488C1.24546 476.318 1.63161 484.911 0 492.546L0 0Z"/>
	<path fill="#100033" d="M0 533.285L0.0954062 533.834C1.44263 542.049 1.18915 550.571 2.03025 558.858C4.07486 579.002 6.68706 599.604 10.9188 619.409Q12.1415 625.168 13.4968 630.897Q14.8521 636.627 16.3393 642.323Q17.8265 648.019 19.4447 653.68Q21.063 659.341 22.8115 664.962Q24.5599 670.584 26.4377 676.164Q28.3155 681.744 30.3215 687.279Q32.3276 692.814 34.4608 698.301Q36.5941 703.789 38.8535 709.225Q41.1128 714.662 43.4971 720.045Q45.8813 725.428 48.3891 730.754Q50.897 736.081 53.5271 741.348Q56.1572 746.615 58.9082 751.82Q61.6591 757.025 64.5295 762.166Q67.3999 767.306 70.3882 772.379Q73.3764 777.451 76.481 782.453Q79.5855 787.456 82.8047 792.385Q86.0238 797.314 89.3559 802.168Q92.688 807.022 96.1312 811.797Q99.5745 816.573 103.127 821.267Q106.68 825.962 110.339 830.574Q113.999 835.185 117.765 839.711Q121.53 844.237 125.399 848.674Q129.268 853.112 133.238 857.459Q137.208 861.807 141.278 866.061Q145.347 870.315 149.514 874.475Q153.681 878.634 157.942 882.696Q162.204 886.758 166.558 890.721Q170.912 894.684 175.357 898.545Q179.801 902.406 184.333 906.163Q188.866 909.921 193.484 913.573Q198.102 917.224 202.803 920.769Q207.503 924.313 212.285 927.748Q218.382 932.092 224.603 936.257Q230.824 940.422 237.164 944.403Q243.504 948.385 249.957 952.18Q256.411 955.974 262.972 959.579Q269.533 963.184 276.197 966.596Q282.861 970.008 289.621 973.224Q296.381 976.441 303.233 979.458Q310.084 982.476 317.021 985.292Q323.957 988.108 330.973 990.721Q337.988 993.334 345.077 995.741Q352.166 998.148 359.322 1000.35Q366.478 1002.55 373.696 1004.54Q380.913 1006.53 388.185 1008.3Q395.457 1010.08 402.778 1011.65Q410.099 1013.21 417.463 1014.56Q424.826 1015.91 432.226 1017.05Q453.379 1020.38 474.716 1022.21C483.355 1022.87 492.596 1022.27 501.063 1024L0 1024L0 533.285Z"/>
</svg>
